<?xml version="1.0" encoding="UTF-8" standalone="no"?>
<!DOCTYPE svg PUBLIC "-//W3C//DTD SVG 1.1//EN"
 "http://www.w3.org/Graphics/SVG/1.1/DTD/svg11.dtd">
<!-- Generated by graphviz version 13.1.0 (20250701.0955)
 -->
<!-- Pages: 1 -->
<svg width="581pt" height="450pt"
 viewBox="0.00 0.00 581.00 450.00" xmlns="http://www.w3.org/2000/svg" xmlns:xlink="http://www.w3.org/1999/xlink">
<g id="graph0" class="graph" transform="scale(1 1) rotate(0) translate(4 446)">
<polygon fill="white" stroke="none" points="-4,4 -4,-446 576.75,-446 576.75,4 -4,4"/>
<g id="clust2" class="cluster">
<title>cluster_associated</title>
</g>
<!-- AgreementOntologyThing -->
<g id="node1" class="node">
<title>AgreementOntologyThing</title>
<g id="a_node1"><a xlink:href="../classes/AgreementOntologyThing.md" xlink:title="&lt;TABLE&gt;">
<polygon fill="lightgray" stroke="none" points="306.38,-415.88 306.38,-432.12 445.62,-432.12 445.62,-415.88 306.38,-415.88"/>
<text xml:space="preserve" text-anchor="start" x="307.38" y="-419.73" font-family="Arial" font-size="12.00">AgreementOntologyThing</text>
<polygon fill="none" stroke="black" points="305.38,-414.88 305.38,-433.12 446.62,-433.12 446.62,-414.88 305.38,-414.88"/>
</a>
</g>
</g>
<!-- &quot;Agreement&quot; -->
<g id="node2" class="node">
<title>&quot;Agreement&quot;</title>
<g id="a_node2"><a xlink:href="../classes/&quot;Agreement&quot;.md" xlink:title="&lt;TABLE&gt;">
<polygon fill="lightgray" stroke="none" points="341.25,-342.88 341.25,-359.12 410.75,-359.12 410.75,-342.88 341.25,-342.88"/>
<text xml:space="preserve" text-anchor="start" x="342.25" y="-346.73" font-family="Arial" font-size="12.00">&quot;Agreement&quot;</text>
<polygon fill="none" stroke="black" points="340.25,-341.88 340.25,-360.12 411.75,-360.12 411.75,-341.88 340.25,-341.88"/>
</a>
</g>
</g>
<!-- &quot;Agreement&quot;&#45;&gt;AgreementOntologyThing -->
<g id="edge1" class="edge">
<title>&quot;Agreement&quot;&#45;&gt;AgreementOntologyThing</title>
<path fill="none" stroke="black" d="M376,-368.71C376,-376.47 376,-385.92 376,-394.74"/>
<polygon fill="none" stroke="black" points="372.5,-394.66 376,-404.66 379.5,-394.66 372.5,-394.66"/>
</g>
<!-- Invis -->
<!-- &quot;Agreement&quot;&#45;&gt;Invis -->
<!-- Agent__Agent -->
<g id="node4" class="node">
<title>Agent__Agent</title>
<polygon fill="lightgray" stroke="none" points="119.5,-257.38 119.5,-273.62 196.5,-273.62 196.5,-257.38 119.5,-257.38"/>
<text xml:space="preserve" text-anchor="start" x="120.5" y="-261.23" font-family="Arial" font-size="12.00">Agent::::Agent</text>
<polygon fill="none" stroke="black" points="118.5,-256.38 118.5,-274.62 197.5,-274.62 197.5,-256.38 118.5,-256.38"/>
</g>
<!-- &quot;Agreement&quot;&#45;&gt;Agent__Agent -->
<g id="edge10" class="edge">
<title>&quot;Agreement&quot;&#45;&gt;Agent__Agent</title>
<path fill="none" stroke="black" d="M340.42,-334.25C338.94,-333.8 337.46,-333.38 336,-333 297.71,-323.16 185.81,-344.06 159,-315 153.98,-309.56 152.29,-302.13 152.23,-294.72"/>
<polygon fill="black" stroke="black" points="155.71,-295.17 153.12,-284.9 148.74,-294.55 155.71,-295.17"/>
<text xml:space="preserve" text-anchor="middle" x="214.5" y="-304.55" font-family="Arial" font-size="11.00">involvesAgent «min 2» </text>
</g>
<!-- http_//ontology.eil.utoronto.ca/5087/1/SpatialLoc/Location -->
<g id="node5" class="node">
<title>http_//ontology.eil.utoronto.ca/5087/1/SpatialLoc/Location</title>
<polygon fill="lightgray" stroke="none" points="17.5,-171.88 17.5,-188.12 322.5,-188.12 322.5,-171.88 17.5,-171.88"/>
<text xml:space="preserve" text-anchor="start" x="18.5" y="-175.72" font-family="Arial" font-size="12.00">http:://ontology.eil.utoronto.ca/5087/1/SpatialLoc/Location</text>
<polygon fill="none" stroke="black" points="16.5,-170.88 16.5,-189.12 323.5,-189.12 323.5,-170.88 16.5,-170.88"/>
</g>
<!-- &quot;Agreement&quot;&#45;&gt;http_//ontology.eil.utoronto.ca/5087/1/SpatialLoc/Location -->
<g id="edge9" class="edge">
<title>&quot;Agreement&quot;&#45;&gt;http_//ontology.eil.utoronto.ca/5087/1/SpatialLoc/Location</title>
<path fill="none" stroke="black" d="M354.98,-333.12C338.33,-319.72 314.5,-300.48 293.75,-283.5 261.06,-256.75 223.75,-225.79 198.72,-204.95"/>
<polygon fill="black" stroke="black" points="201.18,-202.44 191.25,-198.73 196.7,-207.82 201.18,-202.44"/>
<text xml:space="preserve" text-anchor="middle" x="327.88" y="-261.8" font-family="Arial" font-size="11.00">validIn «only» </text>
</g>
<!-- time__Instant -->
<g id="node6" class="node">
<title>time__Instant</title>
<polygon fill="lightgray" stroke="none" points="249.12,-98.88 249.12,-115.12 320.88,-115.12 320.88,-98.88 249.12,-98.88"/>
<text xml:space="preserve" text-anchor="start" x="250.12" y="-102.72" font-family="Arial" font-size="12.00">time::::Instant</text>
<polygon fill="none" stroke="black" points="248.12,-97.88 248.12,-116.12 321.88,-116.12 321.88,-97.88 248.12,-97.88"/>
</g>
<!-- &quot;Agreement&quot;&#45;&gt;time__Instant -->
<g id="edge7" class="edge">
<title>&quot;Agreement&quot;&#45;&gt;time__Instant</title>
<path fill="none" stroke="black" d="M375.46,-333.21C373.67,-298.79 366,-218.73 333,-162 326.95,-151.59 318.68,-141.4 310.72,-132.72"/>
<polygon fill="black" stroke="black" points="313.43,-130.49 303.99,-125.68 308.37,-135.33 313.43,-130.49"/>
<text xml:space="preserve" text-anchor="middle" x="412.66" y="-219.05" font-family="Arial" font-size="11.00">establishedOn «only» </text>
</g>
<!-- time__Interval -->
<g id="node7" class="node">
<title>time__Interval</title>
<polygon fill="lightgray" stroke="none" points="247.25,-25.88 247.25,-42.12 322.75,-42.12 322.75,-25.88 247.25,-25.88"/>
<text xml:space="preserve" text-anchor="start" x="248.25" y="-29.73" font-family="Arial" font-size="12.00">time::::Interval</text>
<polygon fill="none" stroke="black" points="246.25,-24.88 246.25,-43.12 323.75,-43.12 323.75,-24.88 246.25,-24.88"/>
</g>
<!-- &quot;Agreement&quot;&#45;&gt;time__Interval -->
<g id="edge8" class="edge">
<title>&quot;Agreement&quot;&#45;&gt;time__Interval</title>
<path fill="none" stroke="black" d="M411.65,-341.62C447.34,-330.85 497,-308.36 497,-266.5 497,-266.5 497,-266.5 497,-106 497,-71.93 397.28,-51.19 334.63,-41.53"/>
<polygon fill="black" stroke="black" points="335.3,-38.09 324.89,-40.08 334.26,-45.02 335.3,-38.09"/>
<text xml:space="preserve" text-anchor="middle" x="534.88" y="-176.3" font-family="Arial" font-size="11.00">validFor «only» </text>
</g>
<!-- Invis&#45;&gt;Agent__Agent -->
<!-- Agent__Agent&#45;&gt;http_//ontology.eil.utoronto.ca/5087/1/SpatialLoc/Location -->
<!-- http_//ontology.eil.utoronto.ca/5087/1/SpatialLoc/Location&#45;&gt;time__Instant -->
<!-- time__Instant&#45;&gt;time__Interval -->
</g>
</svg>
