<?xml version="1.0" encoding="UTF-8" standalone="no"?>
<!DOCTYPE svg PUBLIC "-//W3C//DTD SVG 1.1//EN"
 "http://www.w3.org/Graphics/SVG/1.1/DTD/svg11.dtd">
<!-- Generated by graphviz version 13.1.0 (20250701.0955)
 -->
<!-- Pages: 1 -->
<svg width="542pt" height="219pt"
 viewBox="0.00 0.00 542.00 219.00" xmlns="http://www.w3.org/2000/svg" xmlns:xlink="http://www.w3.org/1999/xlink">
<g id="graph0" class="graph" transform="scale(1 1) rotate(0) translate(4 214.5)">
<polygon fill="white" stroke="none" points="-4,4 -4,-214.5 537.62,-214.5 537.62,4 -4,4"/>
<g id="clust2" class="cluster">
<title>cluster_associated</title>
</g>
<!-- Agreement -->
<g id="node1" class="node">
<title>Agreement</title>
<g id="a_node1"><a xlink:href="../classes/Agreement.md" xlink:title="&lt;TABLE&gt;">
<polygon fill="lightgray" stroke="none" points="25.38,-184.38 25.38,-200.62 85.88,-200.62 85.88,-184.38 25.38,-184.38"/>
<text xml:space="preserve" text-anchor="start" x="26.38" y="-188.22" font-family="Arial" font-size="12.00">Agreement</text>
<polygon fill="none" stroke="black" points="24.38,-183.38 24.38,-201.62 86.88,-201.62 86.88,-183.38 24.38,-183.38"/>
</a>
</g>
</g>
<!-- &quot;Atomic Agreement&quot; -->
<g id="node2" class="node">
<title>&quot;Atomic Agreement&quot;</title>
<g id="a_node2"><a xlink:href="../classes/&quot;Atomic Agreement&quot;.md" xlink:title="&lt;TABLE&gt;">
<polygon fill="lightgray" stroke="none" points="1,-111.38 1,-127.62 110.25,-127.62 110.25,-111.38 1,-111.38"/>
<text xml:space="preserve" text-anchor="start" x="2" y="-115.22" font-family="Arial" font-size="12.00">&quot;Atomic Agreement&quot;</text>
<polygon fill="none" stroke="black" points="0,-110.38 0,-128.62 111.25,-128.62 111.25,-110.38 0,-110.38"/>
</a>
</g>
</g>
<!-- &quot;Atomic Agreement&quot;&#45;&gt;Agreement -->
<g id="edge1" class="edge">
<title>&quot;Atomic Agreement&quot;&#45;&gt;Agreement</title>
<path fill="none" stroke="black" d="M55.62,-137.21C55.62,-144.97 55.62,-154.42 55.62,-163.24"/>
<polygon fill="none" stroke="black" points="52.13,-163.16 55.63,-173.16 59.13,-163.16 52.13,-163.16"/>
</g>
<!-- Invis -->
<!-- &quot;Atomic Agreement&quot;&#45;&gt;Invis -->
<!-- https_//standards.iso.org/iso&#45;iec/5087/&#45;1/ed&#45;1/en/ontology/Activity/Activity -->
<g id="node4" class="node">
<title>https_//standards.iso.org/iso&#45;iec/5087/&#45;1/ed&#45;1/en/ontology/Activity/Activity</title>
<g id="a_node4"><a xlink:href="../classes/https://standards.iso.org/iso-iec/5087/-1/ed-1/en/ontology/Activity/Activity.md" xlink:title="&lt;TABLE&gt;">
<polygon fill="lightgray" stroke="none" points="128.88,-25.88 128.88,-42.12 516.38,-42.12 516.38,-25.88 128.88,-25.88"/>
<text xml:space="preserve" text-anchor="start" x="129.88" y="-29.73" font-family="Arial" font-size="12.00">https:://standards.iso.org/iso&#45;iec/5087/&#45;1/ed&#45;1/en/ontology/Activity/Activity</text>
<polygon fill="none" stroke="black" points="127.88,-24.88 127.88,-43.12 517.38,-43.12 517.38,-24.88 127.88,-24.88"/>
</a>
</g>
</g>
<!-- &quot;Atomic Agreement&quot;&#45;&gt;https_//standards.iso.org/iso&#45;iec/5087/&#45;1/ed&#45;1/en/ontology/Activity/Activity -->
<g id="edge4" class="edge">
<title>&quot;Atomic Agreement&quot;&#45;&gt;https_//standards.iso.org/iso&#45;iec/5087/&#45;1/ed&#45;1/en/ontology/Activity/Activity</title>
<path fill="none" stroke="black" d="M79.58,-101.53C95.6,-90.96 117.53,-77.9 138.62,-70 155.02,-63.86 172.65,-58.76 190.28,-54.52"/>
<polygon fill="black" stroke="black" points="190.81,-57.99 199.77,-52.34 189.24,-51.17 190.81,-57.99"/>
<text xml:space="preserve" text-anchor="middle" x="203.12" y="-73.05" font-family="Arial" font-size="11.00">commitsToActivity «some» </text>
</g>
<!-- Invis&#45;&gt;https_//standards.iso.org/iso&#45;iec/5087/&#45;1/ed&#45;1/en/ontology/Activity/Activity -->
</g>
</svg>
