<?xml version="1.0" encoding="UTF-8" standalone="no"?>
<!DOCTYPE svg PUBLIC "-//W3C//DTD SVG 1.1//EN"
 "http://www.w3.org/Graphics/SVG/1.1/DTD/svg11.dtd">
<!-- Generated by graphviz version 13.1.0 (20250701.0955)
 -->
<!-- Pages: 1 -->
<svg width="218pt" height="146pt"
 viewBox="0.00 0.00 218.00 146.00" xmlns="http://www.w3.org/2000/svg" xmlns:xlink="http://www.w3.org/1999/xlink">
<g id="graph0" class="graph" transform="scale(1 1) rotate(0) translate(4 141.5)">
<polygon fill="white" stroke="none" points="-4,4 -4,-141.5 214.25,-141.5 214.25,4 -4,4"/>
<g id="clust2" class="cluster">
<title>cluster_associated</title>
</g>
<!-- Agreement -->
<g id="node1" class="node">
<title>Agreement</title>
<g id="a_node1"><a xlink:href="../classes/Agreement.md" xlink:title="&lt;TABLE&gt;">
<polygon fill="lightgray" stroke="none" points="31,-111.38 31,-127.62 91.5,-127.62 91.5,-111.38 31,-111.38"/>
<text xml:space="preserve" text-anchor="start" x="32" y="-115.22" font-family="Arial" font-size="12.00">Agreement</text>
<polygon fill="none" stroke="black" points="30,-110.38 30,-128.62 92.5,-128.62 92.5,-110.38 30,-110.38"/>
</a>
</g>
</g>
<!-- &quot;Complex Agreement&quot; -->
<g id="node2" class="node">
<title>&quot;Complex Agreement&quot;</title>
<g id="a_node2"><a xlink:href="../classes/&quot;Complex Agreement&quot;.md" xlink:title="&lt;TABLE&gt;">
<polygon fill="lightgray" stroke="none" points="1,-25.88 1,-42.12 121.5,-42.12 121.5,-25.88 1,-25.88"/>
<text xml:space="preserve" text-anchor="start" x="2" y="-29.73" font-family="Arial" font-size="12.00">&quot;Complex Agreement&quot;</text>
<polygon fill="none" stroke="black" points="0,-24.88 0,-43.12 122.5,-43.12 122.5,-24.88 0,-24.88"/>
</a>
</g>
</g>
<!-- &quot;Complex Agreement&quot;&#45;&gt;Agreement -->
<g id="edge1" class="edge">
<title>&quot;Complex Agreement&quot;&#45;&gt;Agreement</title>
<path fill="none" stroke="black" d="M60.1,-51.73C59.75,-57.51 59.42,-64.04 59.25,-70 59.06,-76.63 59.18,-83.78 59.43,-90.49"/>
<polygon fill="none" stroke="black" points="55.93,-90.57 59.92,-100.38 62.92,-90.22 55.93,-90.57"/>
</g>
<!-- &quot;Complex Agreement&quot;&#45;&gt;Agreement -->
<g id="edge2" class="edge">
<title>&quot;Complex Agreement&quot;&#45;&gt;Agreement</title>
<path fill="none" stroke="black" d="M61.25,-51.87C61.25,-62.85 61.25,-77.43 61.25,-90.15"/>
<polygon fill="black" stroke="black" points="57.75,-90.09 61.25,-100.09 64.75,-90.09 57.75,-90.09"/>
<text xml:space="preserve" text-anchor="middle" x="128.38" y="-73.05" font-family="Arial" font-size="11.00">hasSubAgreement «min 2» </text>
</g>
<!-- Invis -->
</g>
</svg>
