<?xml version="1.0" encoding="UTF-8" standalone="no"?>
<!DOCTYPE svg PUBLIC "-//W3C//DTD SVG 1.1//EN"
 "http://www.w3.org/Graphics/SVG/1.1/DTD/svg11.dtd">
<!-- Generated by graphviz version 13.1.0 (20250701.0955)
 -->
<!-- Pages: 1 -->
<svg width="337pt" height="219pt"
 viewBox="0.00 0.00 337.00 219.00" xmlns="http://www.w3.org/2000/svg" xmlns:xlink="http://www.w3.org/1999/xlink">
<g id="graph0" class="graph" transform="scale(1 1) rotate(0) translate(4 214.5)">
<polygon fill="white" stroke="none" points="-4,4 -4,-214.5 333.38,-214.5 333.38,4 -4,4"/>
<g id="clust2" class="cluster">
<title>cluster_associated</title>
</g>
<!-- i72__Quantity -->
<g id="node1" class="node">
<title>i72__Quantity</title>
<g id="a_node1"><a xlink:href="../classes/i72::Quantity.md" xlink:title="&lt;TABLE&gt;">
<polygon fill="lightgray" stroke="none" points="1,-184.38 1,-200.62 75.75,-200.62 75.75,-184.38 1,-184.38"/>
<text xml:space="preserve" text-anchor="start" x="2" y="-188.22" font-family="Arial" font-size="12.00">i72::::Quantity</text>
<polygon fill="none" stroke="black" points="0,-183.38 0,-201.62 76.75,-201.62 76.75,-183.38 0,-183.38"/>
</a>
</g>
</g>
<!-- acceleration -->
<g id="node2" class="node">
<title>acceleration</title>
<g id="a_node2"><a xlink:href="../classes/acceleration.md" xlink:title="&lt;TABLE&gt;">
<polygon fill="lightgray" stroke="none" points="4.75,-111.38 4.75,-127.62 72,-127.62 72,-111.38 4.75,-111.38"/>
<text xml:space="preserve" text-anchor="start" x="5.75" y="-115.22" font-family="Arial" font-size="12.00">acceleration</text>
<polygon fill="none" stroke="black" points="3.75,-110.38 3.75,-128.62 73,-128.62 73,-110.38 3.75,-110.38"/>
</a>
</g>
</g>
<!-- acceleration&#45;&gt;i72__Quantity -->
<g id="edge1" class="edge">
<title>acceleration&#45;&gt;i72__Quantity</title>
<path fill="none" stroke="black" d="M38.38,-137.21C38.38,-144.97 38.38,-154.42 38.38,-163.24"/>
<polygon fill="none" stroke="black" points="34.88,-163.16 38.38,-173.16 41.88,-163.16 34.88,-163.16"/>
</g>
<!-- Invis -->
<!-- acceleration&#45;&gt;Invis -->
<!-- Nea16a84bf4be44c6acb9d7844da06019 -->
<g id="node4" class="node">
<title>Nea16a84bf4be44c6acb9d7844da06019</title>
<polygon fill="lightgray" stroke="none" points="90.5,-25.88 90.5,-42.12 312.25,-42.12 312.25,-25.88 90.5,-25.88"/>
<text xml:space="preserve" text-anchor="start" x="91.5" y="-29.73" font-family="Arial" font-size="12.00">Nea16a84bf4be44c6acb9d7844da06019</text>
<polygon fill="none" stroke="black" points="89.5,-24.88 89.5,-43.12 313.25,-43.12 313.25,-24.88 89.5,-24.88"/>
</g>
<!-- acceleration&#45;&gt;Nea16a84bf4be44c6acb9d7844da06019 -->
<g id="edge4" class="edge">
<title>acceleration&#45;&gt;Nea16a84bf4be44c6acb9d7844da06019</title>
<path fill="none" stroke="black" stroke-dasharray="5,2" d="M36.55,-101.64C36.39,-91.24 38.08,-78.34 45.88,-70 51.75,-63.72 63.93,-58.42 79.02,-54"/>
<polygon fill="black" stroke="black" points="79.68,-57.45 88.43,-51.48 77.86,-50.69 79.68,-57.45"/>
<text xml:space="preserve" text-anchor="middle" x="117.12" y="-73.05" font-family="Arial" font-size="11.00">onProperty: i72::value «only» </text>
</g>
<!-- Invis&#45;&gt;Nea16a84bf4be44c6acb9d7844da06019 -->
</g>
</svg>
