<?xml version="1.0" encoding="UTF-8" standalone="no"?>
<!DOCTYPE svg PUBLIC "-//W3C//DTD SVG 1.1//EN"
 "http://www.w3.org/Graphics/SVG/1.1/DTD/svg11.dtd">
<!-- Generated by graphviz version 13.1.0 (20250701.0955)
 -->
<!-- Pages: 1 -->
<svg width="360pt" height="219pt"
 viewBox="0.00 0.00 360.00 219.00" xmlns="http://www.w3.org/2000/svg" xmlns:xlink="http://www.w3.org/1999/xlink">
<g id="graph0" class="graph" transform="scale(1 1) rotate(0) translate(4 214.5)">
<polygon fill="white" stroke="none" points="-4,4 -4,-214.5 355.75,-214.5 355.75,4 -4,4"/>
<g id="clust2" class="cluster">
<title>cluster_associated</title>
</g>
<!-- i72__Quantity -->
<g id="node1" class="node">
<title>i72__Quantity</title>
<g id="a_node1"><a xlink:href="../classes/i72::Quantity.md" xlink:title="&lt;TABLE&gt;">
<polygon fill="lightgray" stroke="none" points="10.38,-184.38 10.38,-200.62 85.12,-200.62 85.12,-184.38 10.38,-184.38"/>
<text xml:space="preserve" text-anchor="start" x="11.38" y="-188.22" font-family="Arial" font-size="12.00">i72::::Quantity</text>
<polygon fill="none" stroke="black" points="9.38,-183.38 9.38,-201.62 86.12,-201.62 86.12,-183.38 9.38,-183.38"/>
</a>
</g>
</g>
<!-- amount of money -->
<g id="node2" class="node">
<title>amount of money</title>
<g id="a_node2"><a xlink:href="../classes/amount of money.md" xlink:title="&lt;TABLE&gt;">
<polygon fill="lightgray" stroke="none" points="1,-111.38 1,-127.62 94.5,-127.62 94.5,-111.38 1,-111.38"/>
<text xml:space="preserve" text-anchor="start" x="2" y="-115.22" font-family="Arial" font-size="12.00">amount of money</text>
<polygon fill="none" stroke="black" points="0,-110.38 0,-128.62 95.5,-128.62 95.5,-110.38 0,-110.38"/>
</a>
</g>
</g>
<!-- amount of money&#45;&gt;i72__Quantity -->
<g id="edge1" class="edge">
<title>amount of money&#45;&gt;i72__Quantity</title>
<path fill="none" stroke="black" d="M47.75,-137.21C47.75,-144.97 47.75,-154.42 47.75,-163.24"/>
<polygon fill="none" stroke="black" points="44.25,-163.16 47.75,-173.16 51.25,-163.16 44.25,-163.16"/>
</g>
<!-- Invis -->
<!-- amount of money&#45;&gt;Invis -->
<!-- N310bb250f204453183ba113c260e6a33 -->
<g id="node4" class="node">
<title>N310bb250f204453183ba113c260e6a33</title>
<polygon fill="lightgray" stroke="none" points="112.88,-25.88 112.88,-42.12 334.62,-42.12 334.62,-25.88 112.88,-25.88"/>
<text xml:space="preserve" text-anchor="start" x="113.88" y="-29.73" font-family="Arial" font-size="12.00">N310bb250f204453183ba113c260e6a33</text>
<polygon fill="none" stroke="black" points="111.88,-24.88 111.88,-43.12 335.62,-43.12 335.62,-24.88 111.88,-24.88"/>
</g>
<!-- amount of money&#45;&gt;N310bb250f204453183ba113c260e6a33 -->
<g id="edge4" class="edge">
<title>amount of money&#45;&gt;N310bb250f204453183ba113c260e6a33</title>
<path fill="none" stroke="black" stroke-dasharray="5,2" d="M48.17,-101.89C49.33,-91.33 52.6,-78.15 61.25,-70 68.37,-63.29 83.12,-57.68 100.96,-53.05"/>
<polygon fill="black" stroke="black" points="101.73,-56.47 110.63,-50.73 100.09,-49.66 101.73,-56.47"/>
<text xml:space="preserve" text-anchor="middle" x="132.5" y="-73.05" font-family="Arial" font-size="11.00">onProperty: i72::value «only» </text>
</g>
<!-- Invis&#45;&gt;N310bb250f204453183ba113c260e6a33 -->
</g>
</svg>
