<?xml version="1.0" encoding="UTF-8" standalone="no"?>
<!DOCTYPE svg PUBLIC "-//W3C//DTD SVG 1.1//EN"
 "http://www.w3.org/Graphics/SVG/1.1/DTD/svg11.dtd">
<!-- Generated by graphviz version 13.1.0 (20250701.0955)
 -->
<!-- Pages: 1 -->
<svg width="333pt" height="219pt"
 viewBox="0.00 0.00 333.00 219.00" xmlns="http://www.w3.org/2000/svg" xmlns:xlink="http://www.w3.org/1999/xlink">
<g id="graph0" class="graph" transform="scale(1 1) rotate(0) translate(4 214.5)">
<polygon fill="white" stroke="none" points="-4,4 -4,-214.5 329.38,-214.5 329.38,4 -4,4"/>
<g id="clust2" class="cluster">
<title>cluster_associated</title>
</g>
<!-- i72__Quantity -->
<g id="node1" class="node">
<title>i72__Quantity</title>
<g id="a_node1"><a xlink:href="../classes/i72::Quantity.md" xlink:title="&lt;TABLE&gt;">
<polygon fill="lightgray" stroke="none" points="1,-184.38 1,-200.62 75.75,-200.62 75.75,-184.38 1,-184.38"/>
<text xml:space="preserve" text-anchor="start" x="2" y="-188.22" font-family="Arial" font-size="12.00">i72::::Quantity</text>
<polygon fill="none" stroke="black" points="0,-183.38 0,-201.62 76.75,-201.62 76.75,-183.38 0,-183.38"/>
</a>
</g>
</g>
<!-- area -->
<g id="node2" class="node">
<title>area</title>
<g id="a_node2"><a xlink:href="../classes/area.md" xlink:title="&lt;TABLE&gt;">
<polygon fill="lightgray" stroke="none" points="25.38,-111.38 25.38,-127.62 51.38,-127.62 51.38,-111.38 25.38,-111.38"/>
<text xml:space="preserve" text-anchor="start" x="26.38" y="-115.22" font-family="Arial" font-size="12.00">area</text>
<polygon fill="none" stroke="black" points="24.38,-110.38 24.38,-128.62 52.38,-128.62 52.38,-110.38 24.38,-110.38"/>
</a>
</g>
</g>
<!-- area&#45;&gt;i72__Quantity -->
<g id="edge1" class="edge">
<title>area&#45;&gt;i72__Quantity</title>
<path fill="none" stroke="black" d="M38.38,-137.21C38.38,-144.97 38.38,-154.42 38.38,-163.24"/>
<polygon fill="none" stroke="black" points="34.88,-163.16 38.38,-173.16 41.88,-163.16 34.88,-163.16"/>
</g>
<!-- Invis -->
<!-- area&#45;&gt;Invis -->
<!-- Ncb2568037ba540bc8141b33a9d446e23 -->
<g id="node4" class="node">
<title>Ncb2568037ba540bc8141b33a9d446e23</title>
<polygon fill="lightgray" stroke="none" points="82.62,-25.88 82.62,-42.12 308.12,-42.12 308.12,-25.88 82.62,-25.88"/>
<text xml:space="preserve" text-anchor="start" x="83.62" y="-29.73" font-family="Arial" font-size="12.00">Ncb2568037ba540bc8141b33a9d446e23</text>
<polygon fill="none" stroke="black" points="81.62,-24.88 81.62,-43.12 309.12,-43.12 309.12,-24.88 81.62,-24.88"/>
</g>
<!-- area&#45;&gt;Ncb2568037ba540bc8141b33a9d446e23 -->
<g id="edge4" class="edge">
<title>area&#45;&gt;Ncb2568037ba540bc8141b33a9d446e23</title>
<path fill="none" stroke="black" stroke-dasharray="5,2" d="M34.98,-101.8C33.89,-91.47 34.51,-78.58 41.88,-70 47.02,-64.01 57.66,-58.94 71.05,-54.68"/>
<polygon fill="black" stroke="black" points="71.69,-58.14 80.33,-52 69.75,-51.41 71.69,-58.14"/>
<text xml:space="preserve" text-anchor="middle" x="113.12" y="-73.05" font-family="Arial" font-size="11.00">onProperty: i72::value «only» </text>
</g>
<!-- Invis&#45;&gt;Ncb2568037ba540bc8141b33a9d446e23 -->
</g>
</svg>
