<?xml version="1.0" encoding="UTF-8" standalone="no"?>
<!DOCTYPE svg PUBLIC "-//W3C//DTD SVG 1.1//EN"
 "http://www.w3.org/Graphics/SVG/1.1/DTD/svg11.dtd">
<!-- Generated by graphviz version 13.1.0 (20250701.0955)
 -->
<!-- Pages: 1 -->
<svg width="321pt" height="219pt"
 viewBox="0.00 0.00 321.00 219.00" xmlns="http://www.w3.org/2000/svg" xmlns:xlink="http://www.w3.org/1999/xlink">
<g id="graph0" class="graph" transform="scale(1 1) rotate(0) translate(4 214.5)">
<polygon fill="white" stroke="none" points="-4,4 -4,-214.5 317.38,-214.5 317.38,4 -4,4"/>
<g id="clust2" class="cluster">
<title>cluster_associated</title>
</g>
<!-- i72__Quantity -->
<g id="node1" class="node">
<title>i72__Quantity</title>
<g id="a_node1"><a xlink:href="../classes/i72::Quantity.md" xlink:title="&lt;TABLE&gt;">
<polygon fill="lightgray" stroke="none" points="1,-184.38 1,-200.62 75.75,-200.62 75.75,-184.38 1,-184.38"/>
<text xml:space="preserve" text-anchor="start" x="2" y="-188.22" font-family="Arial" font-size="12.00">i72::::Quantity</text>
<polygon fill="none" stroke="black" points="0,-183.38 0,-201.62 76.75,-201.62 76.75,-183.38 0,-183.38"/>
</a>
</g>
</g>
<!-- duration -->
<g id="node2" class="node">
<title>duration</title>
<g id="a_node2"><a xlink:href="../classes/duration.md" xlink:title="&lt;TABLE&gt;">
<polygon fill="lightgray" stroke="none" points="15.62,-111.38 15.62,-127.62 61.12,-127.62 61.12,-111.38 15.62,-111.38"/>
<text xml:space="preserve" text-anchor="start" x="16.62" y="-115.22" font-family="Arial" font-size="12.00">duration</text>
<polygon fill="none" stroke="black" points="14.62,-110.38 14.62,-128.62 62.12,-128.62 62.12,-110.38 14.62,-110.38"/>
</a>
</g>
</g>
<!-- duration&#45;&gt;i72__Quantity -->
<g id="edge1" class="edge">
<title>duration&#45;&gt;i72__Quantity</title>
<path fill="none" stroke="black" d="M38.38,-137.21C38.38,-144.97 38.38,-154.42 38.38,-163.24"/>
<polygon fill="none" stroke="black" points="34.88,-163.16 38.38,-173.16 41.88,-163.16 34.88,-163.16"/>
</g>
<!-- Invis -->
<!-- duration&#45;&gt;Invis -->
<!-- N5990c38bfa3a4658865c11626e54f03f -->
<g id="node4" class="node">
<title>N5990c38bfa3a4658865c11626e54f03f</title>
<polygon fill="lightgray" stroke="none" points="82.62,-25.88 82.62,-42.12 296.12,-42.12 296.12,-25.88 82.62,-25.88"/>
<text xml:space="preserve" text-anchor="start" x="83.62" y="-29.73" font-family="Arial" font-size="12.00">N5990c38bfa3a4658865c11626e54f03f</text>
<polygon fill="none" stroke="black" points="81.62,-24.88 81.62,-43.12 297.12,-43.12 297.12,-24.88 81.62,-24.88"/>
</g>
<!-- duration&#45;&gt;N5990c38bfa3a4658865c11626e54f03f -->
<g id="edge4" class="edge">
<title>duration&#45;&gt;N5990c38bfa3a4658865c11626e54f03f</title>
<path fill="none" stroke="black" stroke-dasharray="5,2" d="M32.78,-101.51C30.56,-91.32 29.95,-78.7 36.88,-70 42.43,-63.03 55.16,-57.33 71.01,-52.71"/>
<polygon fill="black" stroke="black" points="71.62,-56.17 80.38,-50.22 69.82,-49.41 71.62,-56.17"/>
<text xml:space="preserve" text-anchor="middle" x="108.12" y="-73.05" font-family="Arial" font-size="11.00">onProperty: i72::value «only» </text>
</g>
<!-- Invis&#45;&gt;N5990c38bfa3a4658865c11626e54f03f -->
</g>
</svg>
