<?xml version="1.0" encoding="UTF-8" standalone="no"?>
<!DOCTYPE svg PUBLIC "-//W3C//DTD SVG 1.1//EN"
 "http://www.w3.org/Graphics/SVG/1.1/DTD/svg11.dtd">
<!-- Generated by graphviz version 13.1.0 (20250701.0955)
 -->
<!-- Pages: 1 -->
<svg width="321pt" height="219pt"
 viewBox="0.00 0.00 321.00 219.00" xmlns="http://www.w3.org/2000/svg" xmlns:xlink="http://www.w3.org/1999/xlink">
<g id="graph0" class="graph" transform="scale(1 1) rotate(0) translate(4 214.5)">
<polygon fill="white" stroke="none" points="-4,4 -4,-214.5 317.38,-214.5 317.38,4 -4,4"/>
<g id="clust2" class="cluster">
<title>cluster_associated</title>
</g>
<!-- i72__Quantity -->
<g id="node1" class="node">
<title>i72__Quantity</title>
<g id="a_node1"><a xlink:href="../classes/i72::Quantity.md" xlink:title="&lt;TABLE&gt;">
<polygon fill="lightgray" stroke="none" points="1,-184.38 1,-200.62 75.75,-200.62 75.75,-184.38 1,-184.38"/>
<text xml:space="preserve" text-anchor="start" x="2" y="-188.22" font-family="Arial" font-size="12.00">i72::::Quantity</text>
<polygon fill="none" stroke="black" points="0,-183.38 0,-201.62 76.75,-201.62 76.75,-183.38 0,-183.38"/>
</a>
</g>
</g>
<!-- mass -->
<g id="node2" class="node">
<title>mass</title>
<g id="a_node2"><a xlink:href="../classes/mass.md" xlink:title="&lt;TABLE&gt;">
<polygon fill="lightgray" stroke="none" points="23.12,-111.38 23.12,-127.62 53.62,-127.62 53.62,-111.38 23.12,-111.38"/>
<text xml:space="preserve" text-anchor="start" x="24.12" y="-115.22" font-family="Arial" font-size="12.00">mass</text>
<polygon fill="none" stroke="black" points="22.12,-110.38 22.12,-128.62 54.62,-128.62 54.62,-110.38 22.12,-110.38"/>
</a>
</g>
</g>
<!-- mass&#45;&gt;i72__Quantity -->
<g id="edge1" class="edge">
<title>mass&#45;&gt;i72__Quantity</title>
<path fill="none" stroke="black" d="M38.38,-137.21C38.38,-144.97 38.38,-154.42 38.38,-163.24"/>
<polygon fill="none" stroke="black" points="34.88,-163.16 38.38,-173.16 41.88,-163.16 34.88,-163.16"/>
</g>
<!-- Invis -->
<!-- mass&#45;&gt;Invis -->
<!-- Nef8c97ea70244fc4be8f8b42d961ba1e -->
<g id="node4" class="node">
<title>Nef8c97ea70244fc4be8f8b42d961ba1e</title>
<polygon fill="lightgray" stroke="none" points="82.25,-25.88 82.25,-42.12 296.5,-42.12 296.5,-25.88 82.25,-25.88"/>
<text xml:space="preserve" text-anchor="start" x="83.25" y="-29.73" font-family="Arial" font-size="12.00">Nef8c97ea70244fc4be8f8b42d961ba1e</text>
<polygon fill="none" stroke="black" points="81.25,-24.88 81.25,-43.12 297.5,-43.12 297.5,-24.88 81.25,-24.88"/>
</g>
<!-- mass&#45;&gt;Nef8c97ea70244fc4be8f8b42d961ba1e -->
<g id="edge4" class="edge">
<title>mass&#45;&gt;Nef8c97ea70244fc4be8f8b42d961ba1e</title>
<path fill="none" stroke="black" stroke-dasharray="5,2" d="M32.78,-101.51C30.56,-91.32 29.95,-78.7 36.88,-70 42.39,-63.07 55,-57.4 70.72,-52.8"/>
<polygon fill="black" stroke="black" points="71.24,-56.28 79.99,-50.32 69.43,-49.52 71.24,-56.28"/>
<text xml:space="preserve" text-anchor="middle" x="108.12" y="-73.05" font-family="Arial" font-size="11.00">onProperty: i72::value «only» </text>
</g>
<!-- Invis&#45;&gt;Nef8c97ea70244fc4be8f8b42d961ba1e -->
</g>
</svg>
