<?xml version="1.0" encoding="UTF-8" standalone="no"?>
<!DOCTYPE svg PUBLIC "-//W3C//DTD SVG 1.1//EN"
 "http://www.w3.org/Graphics/SVG/1.1/DTD/svg11.dtd">
<!-- Generated by graphviz version 13.1.0 (20250701.0955)
 -->
<!-- Pages: 1 -->
<svg width="161pt" height="132pt"
 viewBox="0.00 0.00 161.00 132.00" xmlns="http://www.w3.org/2000/svg" xmlns:xlink="http://www.w3.org/1999/xlink">
<g id="graph0" class="graph" transform="scale(1 1) rotate(0) translate(4 128)">
<polygon fill="white" stroke="none" points="-4,4 -4,-128 157.38,-128 157.38,4 -4,4"/>
<g id="clust2" class="cluster">
<title>cluster_associated</title>
</g>
<!-- i72__Quantity -->
<g id="node1" class="node">
<title>i72__Quantity</title>
<g id="a_node1"><a xlink:href="../classes/i72::Quantity.md" xlink:title="&lt;TABLE&gt;">
<polygon fill="lightgray" stroke="none" points="1,-97.88 1,-114.12 75.75,-114.12 75.75,-97.88 1,-97.88"/>
<text xml:space="preserve" text-anchor="start" x="2" y="-101.72" font-family="Arial" font-size="12.00">i72::::Quantity</text>
<polygon fill="none" stroke="black" points="0,-96.88 0,-115.12 76.75,-115.12 76.75,-96.88 0,-96.88"/>
</a>
</g>
</g>
<!-- ratio -->
<g id="node2" class="node">
<title>ratio</title>
<g id="a_node2"><a xlink:href="../classes/ratio.md" xlink:title="&lt;TABLE&gt;">
<polygon fill="lightgray" stroke="none" points="25.75,-25.88 25.75,-42.12 51,-42.12 51,-25.88 25.75,-25.88"/>
<text xml:space="preserve" text-anchor="start" x="26.75" y="-29.73" font-family="Arial" font-size="12.00">ratio</text>
<polygon fill="none" stroke="black" points="24.75,-24.88 24.75,-43.12 52,-43.12 52,-24.88 24.75,-24.88"/>
</a>
</g>
</g>
<!-- ratio&#45;&gt;i72__Quantity -->
<g id="edge1" class="edge">
<title>ratio&#45;&gt;i72__Quantity</title>
<path fill="none" stroke="black" d="M38.38,-51.79C38.38,-59.25 38.38,-68.24 38.38,-76.69"/>
<polygon fill="none" stroke="black" points="34.88,-76.54 38.38,-86.54 41.88,-76.54 34.88,-76.54"/>
</g>
<!-- Invis -->
</g>
</svg>
