<?xml version="1.0" encoding="UTF-8" standalone="no"?>
<!DOCTYPE svg PUBLIC "-//W3C//DTD SVG 1.1//EN"
 "http://www.w3.org/Graphics/SVG/1.1/DTD/svg11.dtd">
<!-- Generated by graphviz version 13.1.0 (20250701.0955)
 -->
<!-- Pages: 1 -->
<svg width="325pt" height="219pt"
 viewBox="0.00 0.00 325.00 219.00" xmlns="http://www.w3.org/2000/svg" xmlns:xlink="http://www.w3.org/1999/xlink">
<g id="graph0" class="graph" transform="scale(1 1) rotate(0) translate(4 214.5)">
<polygon fill="white" stroke="none" points="-4,4 -4,-214.5 321.38,-214.5 321.38,4 -4,4"/>
<g id="clust2" class="cluster">
<title>cluster_associated</title>
</g>
<!-- i72__Quantity -->
<g id="node1" class="node">
<title>i72__Quantity</title>
<g id="a_node1"><a xlink:href="../classes/i72::Quantity.md" xlink:title="&lt;TABLE&gt;">
<polygon fill="lightgray" stroke="none" points="1,-184.38 1,-200.62 75.75,-200.62 75.75,-184.38 1,-184.38"/>
<text xml:space="preserve" text-anchor="start" x="2" y="-188.22" font-family="Arial" font-size="12.00">i72::::Quantity</text>
<polygon fill="none" stroke="black" points="0,-183.38 0,-201.62 76.75,-201.62 76.75,-183.38 0,-183.38"/>
</a>
</g>
</g>
<!-- speed -->
<g id="node2" class="node">
<title>speed</title>
<g id="a_node2"><a xlink:href="../classes/speed.md" xlink:title="&lt;TABLE&gt;">
<polygon fill="lightgray" stroke="none" points="20.88,-111.38 20.88,-127.62 55.88,-127.62 55.88,-111.38 20.88,-111.38"/>
<text xml:space="preserve" text-anchor="start" x="21.88" y="-115.22" font-family="Arial" font-size="12.00">speed</text>
<polygon fill="none" stroke="black" points="19.88,-110.38 19.88,-128.62 56.88,-128.62 56.88,-110.38 19.88,-110.38"/>
</a>
</g>
</g>
<!-- speed&#45;&gt;i72__Quantity -->
<g id="edge1" class="edge">
<title>speed&#45;&gt;i72__Quantity</title>
<path fill="none" stroke="black" d="M38.38,-137.21C38.38,-144.97 38.38,-154.42 38.38,-163.24"/>
<polygon fill="none" stroke="black" points="34.88,-163.16 38.38,-173.16 41.88,-163.16 34.88,-163.16"/>
</g>
<!-- Invis -->
<!-- speed&#45;&gt;Invis -->
<!-- N7f17a6543d1c4c68aeb3d9880f342c7b -->
<g id="node4" class="node">
<title>N7f17a6543d1c4c68aeb3d9880f342c7b</title>
<polygon fill="lightgray" stroke="none" points="82.75,-25.88 82.75,-42.12 300,-42.12 300,-25.88 82.75,-25.88"/>
<text xml:space="preserve" text-anchor="start" x="83.75" y="-29.73" font-family="Arial" font-size="12.00">N7f17a6543d1c4c68aeb3d9880f342c7b</text>
<polygon fill="none" stroke="black" points="81.75,-24.88 81.75,-43.12 301,-43.12 301,-24.88 81.75,-24.88"/>
</g>
<!-- speed&#45;&gt;N7f17a6543d1c4c68aeb3d9880f342c7b -->
<g id="edge4" class="edge">
<title>speed&#45;&gt;N7f17a6543d1c4c68aeb3d9880f342c7b</title>
<path fill="none" stroke="black" stroke-dasharray="5,2" d="M33.79,-101.94C31.99,-91.67 31.8,-78.79 38.88,-70 44.24,-63.34 56.19,-57.84 71.16,-53.33"/>
<polygon fill="black" stroke="black" points="71.79,-56.78 80.51,-50.76 69.94,-50.03 71.79,-56.78"/>
<text xml:space="preserve" text-anchor="middle" x="110.12" y="-73.05" font-family="Arial" font-size="11.00">onProperty: i72::value «only» </text>
</g>
<!-- Invis&#45;&gt;N7f17a6543d1c4c68aeb3d9880f342c7b -->
</g>
</svg>
