<?xml version="1.0" encoding="UTF-8" standalone="no"?>
<!DOCTYPE svg PUBLIC "-//W3C//DTD SVG 1.1//EN"
 "http://www.w3.org/Graphics/SVG/1.1/DTD/svg11.dtd">
<!-- Generated by graphviz version 13.1.0 (20250701.0955)
 -->
<!-- Pages: 1 -->
<svg width="188pt" height="132pt"
 viewBox="0.00 0.00 188.00 132.00" xmlns="http://www.w3.org/2000/svg" xmlns:xlink="http://www.w3.org/1999/xlink">
<g id="graph0" class="graph" transform="scale(1 1) rotate(0) translate(4 128)">
<polygon fill="white" stroke="none" points="-4,4 -4,-128 184,-128 184,4 -4,4"/>
<g id="clust2" class="cluster">
<title>cluster_associated</title>
</g>
<!-- i72__Unit_of_measure -->
<g id="node1" class="node">
<title>i72__Unit_of_measure</title>
<g id="a_node1"><a xlink:href="../classes/i72::Unit_of_measure.md" xlink:title="&lt;TABLE&gt;">
<polygon fill="lightgray" stroke="none" points="1,-97.88 1,-114.12 123,-114.12 123,-97.88 1,-97.88"/>
<text xml:space="preserve" text-anchor="start" x="2" y="-101.72" font-family="Arial" font-size="12.00">i72::::Unit_of_measure</text>
<polygon fill="none" stroke="black" points="0,-96.88 0,-115.12 124,-115.12 124,-96.88 0,-96.88"/>
</a>
</g>
</g>
<!-- speed unit -->
<g id="node2" class="node">
<title>speed unit</title>
<g id="a_node2"><a xlink:href="../classes/speed unit.md" xlink:title="&lt;TABLE&gt;">
<polygon fill="lightgray" stroke="none" points="33.25,-25.88 33.25,-42.12 90.75,-42.12 90.75,-25.88 33.25,-25.88"/>
<text xml:space="preserve" text-anchor="start" x="34.25" y="-29.73" font-family="Arial" font-size="12.00">speed unit</text>
<polygon fill="none" stroke="black" points="32.25,-24.88 32.25,-43.12 91.75,-43.12 91.75,-24.88 32.25,-24.88"/>
</a>
</g>
</g>
<!-- speed unit&#45;&gt;i72__Unit_of_measure -->
<g id="edge1" class="edge">
<title>speed unit&#45;&gt;i72__Unit_of_measure</title>
<path fill="none" stroke="black" d="M62,-51.79C62,-59.25 62,-68.24 62,-76.69"/>
<polygon fill="none" stroke="black" points="58.5,-76.54 62,-86.54 65.5,-76.54 58.5,-76.54"/>
</g>
<!-- Invis -->
</g>
</svg>
