<?xml version="1.0" encoding="UTF-8" standalone="no"?>
<!DOCTYPE svg PUBLIC "-//W3C//DTD SVG 1.1//EN"
 "http://www.w3.org/Graphics/SVG/1.1/DTD/svg11.dtd">
<!-- Generated by graphviz version 14.1.3 (20260303.0454)
 -->
<!-- Pages: 1 -->
<svg width="742pt" height="568pt"
 viewBox="0.00 0.00 742.00 568.00" xmlns="http://www.w3.org/2000/svg" xmlns:xlink="http://www.w3.org/1999/xlink">
<g id="graph0" class="graph" transform="scale(1 1) rotate(0) translate(4 563.5)">
<polygon fill="white" stroke="none" points="-4,4 -4,-563.5 738.25,-563.5 738.25,4 -4,4"/>
<g id="clust3" class="cluster">
<title>cluster_associated</title>
</g>
<!-- ActivityThing -->
<g id="node1" class="node">
<title>ActivityThing</title>
<g id="a_node1"><a xlink:href="../ActivityThing" xlink:title="&lt;TABLE&gt;">
<polygon fill="lightgray" stroke="none" points="334.5,-533.38 334.5,-549.62 405.5,-549.62 405.5,-533.38 334.5,-533.38"/>
<text xml:space="preserve" text-anchor="start" x="335.5" y="-537.38" font-family="Arial" font-size="12.00">ActivityThing</text>
<polygon fill="none" stroke="black" points="333.5,-532.38 333.5,-550.62 406.5,-550.62 406.5,-532.38 333.5,-532.38"/>
</a>
</g>
</g>
<!-- State -->
<g id="node2" class="node">
<title>State</title>
<g id="a_node2"><a xlink:href="../State" xlink:title="&lt;TABLE&gt;">
<polygon fill="lightgray" stroke="none" points="355.12,-460.38 355.12,-476.62 384.88,-476.62 384.88,-460.38 355.12,-460.38"/>
<text xml:space="preserve" text-anchor="start" x="356.12" y="-464.38" font-family="Arial" font-size="12.00">State</text>
<polygon fill="none" stroke="black" points="354.12,-459.38 354.12,-477.62 385.88,-477.62 385.88,-459.38 354.12,-459.38"/>
</a>
</g>
</g>
<!-- State&#45;&gt;ActivityThing -->
<g id="edge1" class="edge">
<title>State&#45;&gt;ActivityThing</title>
<path fill="none" stroke="black" d="M370,-486.21C370,-493.97 370,-503.42 370,-512.24"/>
<polygon fill="none" stroke="black" points="366.5,-512.16 370,-522.16 373.5,-512.16 366.5,-512.16"/>
</g>
<!-- Invis -->
<!-- State&#45;&gt;Invis -->
<!-- Activity -->
<g id="node4" class="node">
<title>Activity</title>
<g id="a_node4"><a xlink:href="../Activity" xlink:title="&lt;TABLE&gt;">
<polygon fill="lightgray" stroke="none" points="78.88,-268.88 78.88,-285.12 119.12,-285.12 119.12,-268.88 78.88,-268.88"/>
<text xml:space="preserve" text-anchor="start" x="79.88" y="-272.88" font-family="Arial" font-size="12.00">Activity</text>
<polygon fill="none" stroke="black" points="77.88,-267.88 77.88,-286.12 120.12,-286.12 120.12,-267.88 77.88,-267.88"/>
</a>
</g>
</g>
<!-- State&#45;&gt;Activity -->
<g id="edge8" class="edge">
<title>State&#45;&gt;Activity</title>
<path fill="none" stroke="black" d="M343.31,-466.4C285.31,-463.43 150.55,-453.19 120,-421.5 90.56,-390.96 90.77,-338.47 94.36,-306.14"/>
<polygon fill="black" stroke="black" points="97.82,-306.7 95.65,-296.33 90.88,-305.79 97.82,-306.7"/>
<polygon fill="white" stroke="none" points="120,-384.75 120,-406.25 209,-406.25 209,-384.75 120,-384.75"/>
<text xml:space="preserve" text-anchor="start" x="124" y="-391.75" font-family="Arial" font-size="11.00">causedByActivity</text>
</g>
<!-- State&#45;&gt;Activity -->
<g id="edge9" class="edge">
<title>State&#45;&gt;Activity</title>
<path fill="none" stroke="black" d="M343.05,-461.87C316.44,-455.37 275.5,-442.74 245.5,-421.5 224.76,-406.82 226.58,-395.85 209,-377.5 182.89,-350.25 150.63,-321.59 127.81,-302.07"/>
<polygon fill="black" stroke="black" points="130.3,-299.59 120.42,-295.78 125.77,-304.93 130.3,-299.59"/>
<polygon fill="white" stroke="none" points="245.5,-384.75 245.5,-406.25 291,-406.25 291,-384.75 245.5,-384.75"/>
<text xml:space="preserve" text-anchor="start" x="249.5" y="-391.75" font-family="Arial" font-size="11.00">effectOf</text>
</g>
<!-- State&#45;&gt;Activity -->
<g id="edge10" class="edge">
<title>State&#45;&gt;Activity</title>
<path fill="none" stroke="black" d="M353.68,-450.73C345.45,-442.13 335.41,-431.4 326.75,-421.5 310.16,-402.53 310.28,-393.72 291,-377.5 243.5,-337.54 177.26,-307.69 136.31,-291.56"/>
<polygon fill="black" stroke="black" points="137.72,-288.36 127.13,-288.02 135.2,-294.89 137.72,-288.36"/>
<polygon fill="white" stroke="none" points="326.75,-384.75 326.75,-406.25 406,-406.25 406,-384.75 326.75,-384.75"/>
<text xml:space="preserve" text-anchor="start" x="330.75" y="-391.75" font-family="Arial" font-size="11.00">enablesActivity</text>
</g>
<!-- State&#45;&gt;Activity -->
<g id="edge11" class="edge">
<title>State&#45;&gt;Activity</title>
<path fill="none" stroke="black" d="M387.46,-450.83C394.68,-442.75 402.23,-432.43 406,-421.5 412.37,-403.01 417.13,-393.58 406,-377.5 374.83,-332.46 212.16,-298.17 137.07,-284.49"/>
<polygon fill="black" stroke="black" points="137.75,-281.06 127.29,-282.74 136.52,-287.95 137.75,-281.06"/>
<polygon fill="white" stroke="none" points="412.68,-384.75 412.68,-406.25 490.43,-406.25 490.43,-384.75 412.68,-384.75"/>
<text xml:space="preserve" text-anchor="start" x="416.68" y="-391.75" font-family="Arial" font-size="11.00">preconditionOf</text>
</g>
<!-- StateStatus -->
<g id="node5" class="node">
<title>StateStatus</title>
<g id="a_node5"><a xlink:href="../StateStatus" xlink:title="&lt;TABLE&gt;">
<polygon fill="lightgray" stroke="none" points="61.25,-171.88 61.25,-188.12 124.75,-188.12 124.75,-171.88 61.25,-171.88"/>
<text xml:space="preserve" text-anchor="start" x="62.25" y="-175.88" font-family="Arial" font-size="12.00">StateStatus</text>
<polygon fill="none" stroke="black" points="60.25,-170.88 60.25,-189.12 125.75,-189.12 125.75,-170.88 60.25,-170.88"/>
</a>
</g>
</g>
<!-- State&#45;&gt;StateStatus -->
<g id="edge12" class="edge">
<title>State&#45;&gt;StateStatus</title>
<path fill="none" stroke="black" d="M396.87,-466.07C426.28,-462.9 472.17,-452.88 494,-421.5 505.17,-405.45 504.35,-394.09 494,-377.5 413.99,-249.2 223.14,-202.34 136.78,-187.3"/>
<polygon fill="black" stroke="black" points="137.49,-183.86 127.05,-185.67 136.33,-190.77 137.49,-183.86"/>
<polygon fill="white" stroke="none" points="481.06,-316.5 481.06,-359.5 537.06,-359.5 537.06,-316.5 481.06,-316.5"/>
<text xml:space="preserve" text-anchor="start" x="485.06" y="-345" font-family="Arial" font-size="11.00">hasStatus</text>
<text xml:space="preserve" text-anchor="start" x="506.06" y="-323.5" font-family="Arial" font-size="11.00">1</text>
</g>
<!-- time_Interval -->
<g id="node6" class="node">
<title>time_Interval</title>
<g id="a_node6"><a xlink:href="https://w3id.org/citydata/imported/time/latest/Interval" xlink:title="&lt;TABLE&gt;">
<polygon fill="lightgray" stroke="none" points="58.75,-98.88 58.75,-115.12 125.25,-115.12 125.25,-98.88 58.75,-98.88"/>
<text xml:space="preserve" text-anchor="start" x="59.75" y="-102.88" font-family="Arial" font-size="12.00">time:Interval</text>
<polygon fill="none" stroke="black" points="57.75,-97.88 57.75,-116.12 126.25,-116.12 126.25,-97.88 57.75,-97.88"/>
</a>
</g>
</g>
<!-- State&#45;&gt;time_Interval -->
<g id="edge13" class="edge">
<title>State&#45;&gt;time_Interval</title>
<path fill="none" stroke="black" d="M396.82,-463.82C451.77,-455.54 572,-433.21 572,-396.5 572,-396.5 572,-396.5 572,-179 572,-135.33 257.12,-115.83 137.42,-109.99"/>
<polygon fill="black" stroke="black" points="137.8,-106.5 127.65,-109.52 137.47,-113.49 137.8,-106.5"/>
<polygon fill="white" stroke="none" points="572,-255.5 572,-298.5 645.25,-298.5 645.25,-255.5 572,-255.5"/>
<text xml:space="preserve" text-anchor="start" x="576" y="-284" font-family="Arial" font-size="11.00">scheduledFor</text>
<text xml:space="preserve" text-anchor="start" x="599.62" y="-262.5" font-family="Arial" font-size="11.00">0..1</text>
</g>
<!-- time_TemporalEntity -->
<g id="node7" class="node">
<title>time_TemporalEntity</title>
<g id="a_node7"><a xlink:href="https://w3id.org/citydata/imported/time/latest/TemporalEntity" xlink:title="&lt;TABLE&gt;">
<polygon fill="lightgray" stroke="none" points="17.5,-25.88 17.5,-42.12 124.5,-42.12 124.5,-25.88 17.5,-25.88"/>
<text xml:space="preserve" text-anchor="start" x="18.5" y="-29.88" font-family="Arial" font-size="12.00">time:TemporalEntity</text>
<polygon fill="none" stroke="black" points="16.5,-24.88 16.5,-43.12 125.5,-43.12 125.5,-24.88 16.5,-24.88"/>
</a>
</g>
</g>
<!-- State&#45;&gt;time_TemporalEntity -->
<g id="edge7" class="edge">
<title>State&#45;&gt;time_TemporalEntity</title>
<path fill="none" stroke="black" d="M396.89,-466.91C471.04,-464.55 673,-452.96 673,-396.5 673,-396.5 673,-396.5 673,-106 673,-52.48 292.93,-39.19 136.78,-35.98"/>
<polygon fill="black" stroke="black" points="137.07,-32.49 127,-35.79 136.93,-39.49 137.07,-32.49"/>
<polygon fill="white" stroke="none" points="673,-216 673,-237.5 734.25,-237.5 734.25,-216 673,-216"/>
<text xml:space="preserve" text-anchor="start" x="677" y="-223" font-family="Arial" font-size="11.00">achievedAt</text>
</g>
<!-- Invis&#45;&gt;Activity -->
<!-- Activity&#45;&gt;StateStatus -->
<!-- StateStatus&#45;&gt;time_Interval -->
<!-- time_Interval&#45;&gt;time_TemporalEntity -->
</g>
</svg>
