<?xml version="1.0" encoding="UTF-8" standalone="no"?>
<!DOCTYPE svg PUBLIC "-//W3C//DTD SVG 1.1//EN"
 "http://www.w3.org/Graphics/SVG/1.1/DTD/svg11.dtd">
<!-- Generated by graphviz version 13.1.0 (20250701.0955)
 -->
<!-- Pages: 1 -->
<svg width="329pt" height="219pt"
 viewBox="0.00 0.00 329.00 219.00" xmlns="http://www.w3.org/2000/svg" xmlns:xlink="http://www.w3.org/1999/xlink">
<g id="graph0" class="graph" transform="scale(1 1) rotate(0) translate(4 214.5)">
<polygon fill="white" stroke="none" points="-4,4 -4,-214.5 325.38,-214.5 325.38,4 -4,4"/>
<g id="clust2" class="cluster">
<title>cluster_associated</title>
</g>
<!-- i72__Quantity -->
<g id="node1" class="node">
<title>i72__Quantity</title>
<g id="a_node1"><a xlink:href="../classes/i72::Quantity.md" xlink:title="&lt;TABLE&gt;">
<polygon fill="lightgray" stroke="none" points="1,-184.38 1,-200.62 75.75,-200.62 75.75,-184.38 1,-184.38"/>
<text xml:space="preserve" text-anchor="start" x="2" y="-188.22" font-family="Arial" font-size="12.00">i72::::Quantity</text>
<polygon fill="none" stroke="black" points="0,-183.38 0,-201.62 76.75,-201.62 76.75,-183.38 0,-183.38"/>
</a>
</g>
</g>
<!-- volume -->
<g id="node2" class="node">
<title>volume</title>
<g id="a_node2"><a xlink:href="../classes/volume.md" xlink:title="&lt;TABLE&gt;">
<polygon fill="lightgray" stroke="none" points="17.88,-111.38 17.88,-127.62 58.88,-127.62 58.88,-111.38 17.88,-111.38"/>
<text xml:space="preserve" text-anchor="start" x="18.88" y="-115.22" font-family="Arial" font-size="12.00">volume</text>
<polygon fill="none" stroke="black" points="16.88,-110.38 16.88,-128.62 59.88,-128.62 59.88,-110.38 16.88,-110.38"/>
</a>
</g>
</g>
<!-- volume&#45;&gt;i72__Quantity -->
<g id="edge1" class="edge">
<title>volume&#45;&gt;i72__Quantity</title>
<path fill="none" stroke="black" d="M38.38,-137.21C38.38,-144.97 38.38,-154.42 38.38,-163.24"/>
<polygon fill="none" stroke="black" points="34.88,-163.16 38.38,-173.16 41.88,-163.16 34.88,-163.16"/>
</g>
<!-- Invis -->
<!-- volume&#45;&gt;Invis -->
<!-- Ne5b36ed38da84d60b786c82945eb5fc6 -->
<g id="node4" class="node">
<title>Ne5b36ed38da84d60b786c82945eb5fc6</title>
<polygon fill="lightgray" stroke="none" points="82.5,-25.88 82.5,-42.12 304.25,-42.12 304.25,-25.88 82.5,-25.88"/>
<text xml:space="preserve" text-anchor="start" x="83.5" y="-29.73" font-family="Arial" font-size="12.00">Ne5b36ed38da84d60b786c82945eb5fc6</text>
<polygon fill="none" stroke="black" points="81.5,-24.88 81.5,-43.12 305.25,-43.12 305.25,-24.88 81.5,-24.88"/>
</g>
<!-- volume&#45;&gt;Ne5b36ed38da84d60b786c82945eb5fc6 -->
<g id="edge4" class="edge">
<title>volume&#45;&gt;Ne5b36ed38da84d60b786c82945eb5fc6</title>
<path fill="none" stroke="black" stroke-dasharray="5,2" d="M34.18,-101.89C32.63,-91.59 32.7,-78.71 39.88,-70 45.15,-63.59 56.57,-58.25 70.92,-53.84"/>
<polygon fill="black" stroke="black" points="71.69,-57.25 80.38,-51.19 69.8,-50.51 71.69,-57.25"/>
<text xml:space="preserve" text-anchor="middle" x="111.12" y="-73.05" font-family="Arial" font-size="11.00">onProperty: i72::value «only» </text>
</g>
<!-- Invis&#45;&gt;Ne5b36ed38da84d60b786c82945eb5fc6 -->
</g>
</svg>
