<?xml version="1.0" encoding="UTF-8" standalone="no"?>
<!DOCTYPE svg PUBLIC "-//W3C//DTD SVG 1.1//EN"
 "http://www.w3.org/Graphics/SVG/1.1/DTD/svg11.dtd">
<!-- Generated by graphviz version 13.1.0 (20250701.0955)
 -->
<!-- Pages: 1 -->
<svg width="906pt" height="219pt"
 viewBox="0.00 0.00 906.00 219.00" xmlns="http://www.w3.org/2000/svg" xmlns:xlink="http://www.w3.org/1999/xlink">
<g id="graph0" class="graph" transform="scale(1 1) rotate(0) translate(4 214.5)">
<polygon fill="white" stroke="none" points="-4,4 -4,-214.5 901.75,-214.5 901.75,4 -4,4"/>
<g id="clust2" class="cluster">
<title>cluster_associated</title>
</g>
<!-- Manifestation -->
<g id="node1" class="node">
<title>Manifestation</title>
<g id="a_node1"><a xlink:href="../classes/Manifestation.md" xlink:title="&lt;TABLE&gt;">
<polygon fill="lightgray" stroke="none" points="1,-98.88 1,-115.12 74.25,-115.12 74.25,-98.88 1,-98.88"/>
<text xml:space="preserve" text-anchor="start" x="2" y="-102.72" font-family="Arial" font-size="12.00">Manifestation</text>
<polygon fill="none" stroke="black" points="0,-97.88 0,-116.12 75.25,-116.12 75.25,-97.88 0,-97.88"/>
</a>
</g>
</g>
<!-- https://standards.iso.org/iso&#45;iec/5087/&#45;1/ed&#45;1/en/ontology/Change/FirstManifestation -->
<g id="node2" class="node">
<title>https://standards.iso.org/iso&#45;iec/5087/&#45;1/ed&#45;1/en/ontology/Change/FirstManifestation</title>
<g id="a_node2"><a xlink:href="../classes/https://standards.iso.org/iso-iec/5087/-1/ed-1/en/ontology/Change/FirstManifestation.md" xlink:title="&lt;TABLE&gt;">
<polygon fill="lightgray" stroke="none" points="448.5,-98.88 448.5,-115.12 896.75,-115.12 896.75,-98.88 448.5,-98.88"/>
<text xml:space="preserve" text-anchor="start" x="449.5" y="-102.72" font-family="Arial" font-size="12.00">https:://standards.iso.org/iso&#45;iec/5087/&#45;1/ed&#45;1/en/ontology/Change/FirstManifestation</text>
<polygon fill="none" stroke="black" points="447.5,-97.88 447.5,-116.12 897.75,-116.12 897.75,-97.88 447.5,-97.88"/>
</a>
</g>
</g>
<!-- Invis -->
<!-- Ne642615daa524511bca8d8417aae1ffb -->
<g id="node4" class="node">
<title>Ne642615daa524511bca8d8417aae1ffb</title>
<g id="a_node4"><a xlink:href="../classes/Ne642615daa524511bca8d8417aae1ffb.md" xlink:title="&lt;TABLE&gt;">
<polygon fill="lightgray" stroke="none" points="154.62,-25.88 154.62,-42.12 372.62,-42.12 372.62,-25.88 154.62,-25.88"/>
<text xml:space="preserve" text-anchor="start" x="155.62" y="-29.73" font-family="Arial" font-size="12.00">Ne642615daa524511bca8d8417aae1ffb</text>
<polygon fill="none" stroke="black" points="153.62,-24.88 153.62,-43.12 373.62,-43.12 373.62,-24.88 153.62,-24.88"/>
</a>
</g>
</g>
<!-- Invis&#45;&gt;Ne642615daa524511bca8d8417aae1ffb -->
<!-- https -->
<g id="node5" class="node">
<title>https</title>
<text xml:space="preserve" text-anchor="middle" x="146.62" y="-188.22" font-family="Arial" font-size="12.00">https</text>
</g>
<!-- https&#45;&gt;Manifestation -->
<g id="edge1" class="edge">
<title>https://standards.iso.org/iso&#45;iec/5087/&#45;1/ed&#45;1/en/ontology/Change/FirstManifestation&#45;&gt;Manifestation</title>
<path fill="none" stroke="black" d="M120.06,-191.46C93.8,-189.81 54.86,-182.74 35.62,-156.5 31.36,-150.68 30.17,-143.33 30.48,-136.13"/>
<polygon fill="none" stroke="black" points="33.93,-136.68 31.83,-126.3 27,-135.73 33.93,-136.68"/>
</g>
<!-- https&#45;&gt;Manifestation -->
<g id="edge5" class="edge">
<title>https://standards.iso.org/iso&#45;iec/5087/&#45;1/ed&#45;1/en/ontology/Change/FirstManifestation&#45;&gt;Manifestation</title>
<path fill="none" stroke="black" d="M119.97,-188.36C98.56,-184.45 69.22,-175.75 51.38,-156.5 46.14,-150.86 42.88,-143.37 40.86,-135.96"/>
<polygon fill="black" stroke="black" points="44.29,-135.28 38.88,-126.17 37.43,-136.66 44.29,-135.28"/>
<text xml:space="preserve" text-anchor="middle" x="136.5" y="-146.05" font-family="Arial" font-size="11.00">hasLatestManifestation «exactly 1» </text>
</g>
<!-- https&#45;&gt;Invis -->
<!-- https&#45;&gt;Ne642615daa524511bca8d8417aae1ffb -->
<g id="edge4" class="edge">
<title>https://standards.iso.org/iso&#45;iec/5087/&#45;1/ed&#45;1/en/ontology/Change/FirstManifestation&#45;&gt;Ne642615daa524511bca8d8417aae1ffb</title>
<path fill="none" stroke="black" d="M173.52,-186.48C193.93,-181.59 221.77,-172.48 241.62,-156.5 268.8,-134.62 270.31,-91.45 267.81,-62.91"/>
<polygon fill="black" stroke="black" points="271.31,-62.73 266.72,-53.18 264.36,-63.51 271.31,-62.73"/>
<text xml:space="preserve" text-anchor="middle" x="341.23" y="-103.3" font-family="Arial" font-size="11.00">precedesManifestation «only» </text>
</g>
</g>
</svg>
