<?xml version="1.0" encoding="UTF-8" standalone="no"?>
<!DOCTYPE svg PUBLIC "-//W3C//DTD SVG 1.1//EN"
 "http://www.w3.org/Graphics/SVG/1.1/DTD/svg11.dtd">
<!-- Generated by graphviz version 13.1.0 (20250701.0955)
 -->
<!-- Pages: 1 -->
<svg width="1280pt" height="292pt"
 viewBox="0.00 0.00 1280.00 292.00" xmlns="http://www.w3.org/2000/svg" xmlns:xlink="http://www.w3.org/1999/xlink">
<g id="graph0" class="graph" transform="scale(1 1) rotate(0) translate(4 287.5)">
<polygon fill="white" stroke="none" points="-4,4 -4,-287.5 1276.25,-287.5 1276.25,4 -4,4"/>
<g id="clust2" class="cluster">
<title>cluster_associated</title>
</g>
<!-- ChangeOntologyThing -->
<g id="node1" class="node">
<title>ChangeOntologyThing</title>
<g id="a_node1"><a xlink:href="../classes/ChangeOntologyThing.md" xlink:title="&lt;TABLE&gt;">
<polygon fill="lightgray" stroke="none" points="1,-184.38 1,-200.62 124.5,-200.62 124.5,-184.38 1,-184.38"/>
<text xml:space="preserve" text-anchor="start" x="2" y="-188.22" font-family="Arial" font-size="12.00">ChangeOntologyThing</text>
<polygon fill="none" stroke="black" points="0,-183.38 0,-201.62 125.5,-201.62 125.5,-183.38 0,-183.38"/>
</a>
</g>
</g>
<!-- https://standards.iso.org/iso&#45;iec/5087/&#45;1/ed&#45;1/en/ontology/Change/Manifestation -->
<g id="node2" class="node">
<title>https://standards.iso.org/iso&#45;iec/5087/&#45;1/ed&#45;1/en/ontology/Change/Manifestation</title>
<g id="a_node2"><a xlink:href="../classes/https://standards.iso.org/iso-iec/5087/-1/ed-1/en/ontology/Change/Manifestation.md" xlink:title="&lt;TABLE&gt;">
<polygon fill="lightgray" stroke="none" points="846.25,-184.38 846.25,-200.62 1271.25,-200.62 1271.25,-184.38 846.25,-184.38"/>
<text xml:space="preserve" text-anchor="start" x="847.25" y="-188.22" font-family="Arial" font-size="12.00">https:://standards.iso.org/iso&#45;iec/5087/&#45;1/ed&#45;1/en/ontology/Change/Manifestation</text>
<polygon fill="none" stroke="black" points="845.25,-183.38 845.25,-201.62 1272.25,-201.62 1272.25,-183.38 845.25,-183.38"/>
</a>
</g>
</g>
<!-- Invis -->
<!-- Manifestation -->
<g id="node4" class="node">
<title>Manifestation</title>
<g id="a_node4"><a xlink:href="../classes/Manifestation.md" xlink:title="&lt;TABLE&gt;">
<polygon fill="lightgray" stroke="none" points="187.12,-98.88 187.12,-115.12 260.38,-115.12 260.38,-98.88 187.12,-98.88"/>
<text xml:space="preserve" text-anchor="start" x="188.12" y="-102.72" font-family="Arial" font-size="12.00">Manifestation</text>
<polygon fill="none" stroke="black" points="186.12,-97.88 186.12,-116.12 261.38,-116.12 261.38,-97.88 186.12,-97.88"/>
</a>
</g>
</g>
<!-- Invis&#45;&gt;Manifestation -->
<!-- time__TemporalEntity -->
<g id="node5" class="node">
<title>time__TemporalEntity</title>
<polygon fill="lightgray" stroke="none" points="144.75,-25.88 144.75,-42.12 260.75,-42.12 260.75,-25.88 144.75,-25.88"/>
<text xml:space="preserve" text-anchor="start" x="145.75" y="-29.73" font-family="Arial" font-size="12.00">time::::TemporalEntity</text>
<polygon fill="none" stroke="black" points="143.75,-24.88 143.75,-43.12 261.75,-43.12 261.75,-24.88 143.75,-24.88"/>
</g>
<!-- Manifestation&#45;&gt;time__TemporalEntity -->
<!-- https -->
<g id="node6" class="node">
<title>https</title>
<text xml:space="preserve" text-anchor="middle" x="332.75" y="-261.23" font-family="Arial" font-size="12.00">https</text>
</g>
<!-- https&#45;&gt;ChangeOntologyThing -->
<g id="edge1" class="edge">
<title>https://standards.iso.org/iso&#45;iec/5087/&#45;1/ed&#45;1/en/ontology/Change/Manifestation&#45;&gt;ChangeOntologyThing</title>
<path fill="none" stroke="black" d="M305.82,-259.43C267,-251.88 193.22,-236.6 131.75,-218.5 127.21,-217.16 122.54,-215.69 117.87,-214.15"/>
<polygon fill="none" stroke="black" points="119.05,-210.85 108.46,-210.94 116.79,-217.48 119.05,-210.85"/>
</g>
<!-- https&#45;&gt;Invis -->
<!-- https&#45;&gt;Manifestation -->
<g id="edge6" class="edge">
<title>https://standards.iso.org/iso&#45;iec/5087/&#45;1/ed&#45;1/en/ontology/Change/Manifestation&#45;&gt;Manifestation</title>
<path fill="none" stroke="black" d="M306.11,-256.74C287,-249.79 262.16,-237.68 247.75,-218.5 229.79,-194.6 224.71,-160.04 223.53,-135.95"/>
<polygon fill="black" stroke="black" points="227.04,-136.16 223.27,-126.26 220.04,-136.35 227.04,-136.16"/>
<text xml:space="preserve" text-anchor="middle" x="328.75" y="-188.8" font-family="Arial" font-size="11.00">hasFirstManifestation «exactly 1» </text>
</g>
<!-- https&#45;&gt;Manifestation -->
<g id="edge7" class="edge">
<title>https://standards.iso.org/iso&#45;iec/5087/&#45;1/ed&#45;1/en/ontology/Change/Manifestation&#45;&gt;Manifestation</title>
<path fill="none" stroke="black" d="M359.61,-256.25C377.28,-249.27 399.07,-237.33 409.75,-218.5 419.4,-201.49 421.01,-190.49 409.75,-174.5 378.93,-130.75 316.57,-115.63 272.57,-110.49"/>
<polygon fill="black" stroke="black" points="273.06,-107.02 262.76,-109.49 272.35,-113.98 273.06,-107.02"/>
<text xml:space="preserve" text-anchor="middle" x="492.98" y="-188.8" font-family="Arial" font-size="11.00">hasNextManifestation «max 1» </text>
</g>
<!-- https&#45;&gt;Manifestation -->
<g id="edge8" class="edge">
<title>https://standards.iso.org/iso&#45;iec/5087/&#45;1/ed&#45;1/en/ontology/Change/Manifestation&#45;&gt;Manifestation</title>
<path fill="none" stroke="black" d="M359.51,-263.78C433.61,-260.87 632.18,-246.33 572.75,-174.5 535.2,-129.12 359.46,-114.44 272.6,-109.91"/>
<polygon fill="black" stroke="black" points="272.88,-106.42 262.72,-109.42 272.53,-113.41 272.88,-106.42"/>
<text xml:space="preserve" text-anchor="middle" x="668.82" y="-188.8" font-family="Arial" font-size="11.00">hasPreviousManifestation «max 1» </text>
</g>
<!-- https&#45;&gt;time__TemporalEntity -->
<g id="edge5" class="edge">
<title>https://standards.iso.org/iso&#45;iec/5087/&#45;1/ed&#45;1/en/ontology/Change/Manifestation&#45;&gt;time__TemporalEntity</title>
<path fill="none" stroke="black" d="M359.6,-263.63C448.79,-260.48 731.07,-248.22 757.75,-218.5 770.81,-203.95 769.77,-189.92 757.75,-174.5 698.25,-98.2 408.02,-57.25 272.59,-42.03"/>
<polygon fill="black" stroke="black" points="273.38,-38.59 263.05,-40.97 272.6,-45.55 273.38,-38.59"/>
<text xml:space="preserve" text-anchor="middle" x="784.82" y="-146.05" font-family="Arial" font-size="11.00">existsAt «exactly 1» </text>
</g>
</g>
</svg>
