<?xml version="1.0" encoding="UTF-8" standalone="no"?>
<!DOCTYPE svg PUBLIC "-//W3C//DTD SVG 1.1//EN"
 "http://www.w3.org/Graphics/SVG/1.1/DTD/svg11.dtd">
<!-- Generated by graphviz version 13.1.0 (20250701.0955)
 -->
<!-- Pages: 1 -->
<svg width="811pt" height="132pt"
 viewBox="0.00 0.00 811.00 132.00" xmlns="http://www.w3.org/2000/svg" xmlns:xlink="http://www.w3.org/1999/xlink">
<g id="graph0" class="graph" transform="scale(1 1) rotate(0) translate(4 128)">
<polygon fill="white" stroke="none" points="-4,4 -4,-128 806.5,-128 806.5,4 -4,4"/>
<g id="clust2" class="cluster">
<title>cluster_associated</title>
</g>
<!-- OrganizationStructureOntologyThing -->
<g id="node1" class="node">
<title>OrganizationStructureOntologyThing</title>
<g id="a_node1"><a xlink:href="../classes/OrganizationStructureOntologyThing.md" xlink:title="&lt;TABLE&gt;">
<polygon fill="lightgray" stroke="none" points="1,-25.88 1,-42.12 198,-42.12 198,-25.88 1,-25.88"/>
<text xml:space="preserve" text-anchor="start" x="2" y="-29.73" font-family="Arial" font-size="12.00">OrganizationStructureOntologyThing</text>
<polygon fill="none" stroke="black" points="0,-24.88 0,-43.12 199,-43.12 199,-24.88 0,-24.88"/>
</a>
</g>
</g>
<!-- https://standards.iso.org/iso&#45;iec/5087/&#45;1/ed&#45;1/en/ontology/OrganizationStructure/Organization -->
<g id="node2" class="node">
<title>https://standards.iso.org/iso&#45;iec/5087/&#45;1/ed&#45;1/en/ontology/OrganizationStructure/Organization</title>
<g id="a_node2"><a xlink:href="../classes/https://standards.iso.org/iso-iec/5087/-1/ed-1/en/ontology/OrganizationStructure/Organization.md" xlink:title="&lt;TABLE&gt;">
<polygon fill="lightgray" stroke="none" points="217.75,-25.88 217.75,-42.12 713.25,-42.12 713.25,-25.88 217.75,-25.88"/>
<text xml:space="preserve" text-anchor="start" x="218.75" y="-29.73" font-family="Arial" font-size="12.00">https:://standards.iso.org/iso&#45;iec/5087/&#45;1/ed&#45;1/en/ontology/OrganizationStructure/Organization</text>
<polygon fill="none" stroke="black" points="216.75,-24.88 216.75,-43.12 714.25,-43.12 714.25,-24.88 216.75,-24.88"/>
</a>
</g>
</g>
<!-- Invis -->
<!-- https -->
<g id="node4" class="node">
<title>https</title>
<text xml:space="preserve" text-anchor="middle" x="99.5" y="-101.72" font-family="Arial" font-size="12.00">https</text>
</g>
<!-- https&#45;&gt;OrganizationStructureOntologyThing -->
<g id="edge1" class="edge">
<title>https://standards.iso.org/iso&#45;iec/5087/&#45;1/ed&#45;1/en/ontology/OrganizationStructure/Organization&#45;&gt;OrganizationStructureOntologyThing</title>
<path fill="none" stroke="black" d="M99.5,-88.05C99.5,-80.57 99.5,-71.58 99.5,-63.14"/>
<polygon fill="none" stroke="black" points="103,-63.3 99.5,-53.3 96,-63.3 103,-63.3"/>
</g>
</g>
</svg>
