<?xml version="1.0" encoding="UTF-8" standalone="no"?>
<!DOCTYPE svg PUBLIC "-//W3C//DTD SVG 1.1//EN"
 "http://www.w3.org/Graphics/SVG/1.1/DTD/svg11.dtd">
<!-- Generated by graphviz version 13.1.0 (20250701.0955)
 -->
<!-- Pages: 1 -->
<svg width="825pt" height="292pt"
 viewBox="0.00 0.00 825.00 292.00" xmlns="http://www.w3.org/2000/svg" xmlns:xlink="http://www.w3.org/1999/xlink">
<g id="graph0" class="graph" transform="scale(1 1) rotate(0) translate(4 287.5)">
<polygon fill="white" stroke="none" points="-4,4 -4,-287.5 820.88,-287.5 820.88,4 -4,4"/>
<g id="clust2" class="cluster">
<title>cluster_associated</title>
</g>
<!-- i72__Quantity -->
<g id="node1" class="node">
<title>i72__Quantity</title>
<g id="a_node1"><a xlink:href="../classes/i72::Quantity.md" xlink:title="&lt;TABLE&gt;">
<polygon fill="lightgray" stroke="none" points="1,-184.38 1,-200.62 75.75,-200.62 75.75,-184.38 1,-184.38"/>
<text xml:space="preserve" text-anchor="start" x="2" y="-188.22" font-family="Arial" font-size="12.00">i72::::Quantity</text>
<polygon fill="none" stroke="black" points="0,-183.38 0,-201.62 76.75,-201.62 76.75,-183.38 0,-183.38"/>
</a>
</g>
</g>
<!-- https://standards.iso.org/iso&#45;iec/5087/&#45;1/ed&#45;1/en/ontology/CityUnits/CapacitySize -->
<g id="node2" class="node">
<title>https://standards.iso.org/iso&#45;iec/5087/&#45;1/ed&#45;1/en/ontology/CityUnits/CapacitySize</title>
<g id="a_node2"><a xlink:href="../classes/https://standards.iso.org/iso-iec/5087/-1/ed-1/en/ontology/CityUnits/CapacitySize.md" xlink:title="&lt;TABLE&gt;">
<polygon fill="lightgray" stroke="none" points="384.88,-184.38 384.88,-200.62 815.88,-200.62 815.88,-184.38 384.88,-184.38"/>
<text xml:space="preserve" text-anchor="start" x="385.88" y="-188.22" font-family="Arial" font-size="12.00">https:://standards.iso.org/iso&#45;iec/5087/&#45;1/ed&#45;1/en/ontology/CityUnits/CapacitySize</text>
<polygon fill="none" stroke="black" points="383.88,-183.38 383.88,-201.62 816.88,-201.62 816.88,-183.38 383.88,-183.38"/>
</a>
</g>
</g>
<!-- Invis -->
<!-- Capacity -->
<g id="node4" class="node">
<title>Capacity</title>
<g id="a_node4"><a xlink:href="../classes/Capacity.md" xlink:title="&lt;TABLE&gt;">
<polygon fill="lightgray" stroke="none" points="159.75,-98.88 159.75,-115.12 209,-115.12 209,-98.88 159.75,-98.88"/>
<text xml:space="preserve" text-anchor="start" x="160.75" y="-102.72" font-family="Arial" font-size="12.00">Capacity</text>
<polygon fill="none" stroke="black" points="158.75,-97.88 158.75,-116.12 210,-116.12 210,-97.88 158.75,-97.88"/>
</a>
</g>
</g>
<!-- Invis&#45;&gt;Capacity -->
<!-- Na08f6c914fe4477f8768124e26d93047 -->
<g id="node5" class="node">
<title>Na08f6c914fe4477f8768124e26d93047</title>
<polygon fill="lightgray" stroke="none" points="94.88,-25.88 94.88,-42.12 309.88,-42.12 309.88,-25.88 94.88,-25.88"/>
<text xml:space="preserve" text-anchor="start" x="95.88" y="-29.73" font-family="Arial" font-size="12.00">Na08f6c914fe4477f8768124e26d93047</text>
<polygon fill="none" stroke="black" points="93.88,-24.88 93.88,-43.12 310.88,-43.12 310.88,-24.88 93.88,-24.88"/>
</g>
<!-- Capacity&#45;&gt;Na08f6c914fe4477f8768124e26d93047 -->
<!-- https -->
<g id="node6" class="node">
<title>https</title>
<text xml:space="preserve" text-anchor="middle" x="168.38" y="-261.23" font-family="Arial" font-size="12.00">https</text>
</g>
<!-- https&#45;&gt;i72__Quantity -->
<g id="edge1" class="edge">
<title>https://standards.iso.org/iso&#45;iec/5087/&#45;1/ed&#45;1/en/ontology/CityUnits/CapacitySize&#45;&gt;i72__Quantity</title>
<path fill="none" stroke="black" d="M141.57,-250.68C124.29,-241.69 101.4,-229.61 81.38,-218.5 79.91,-217.69 78.42,-216.86 76.92,-216.01"/>
<polygon fill="none" stroke="black" points="78.7,-213 68.28,-211.09 75.23,-219.08 78.7,-213"/>
</g>
<!-- https&#45;&gt;Invis -->
<!-- https&#45;&gt;Capacity -->
<g id="edge6" class="edge">
<title>https://standards.iso.org/iso&#45;iec/5087/&#45;1/ed&#45;1/en/ontology/CityUnits/CapacitySize&#45;&gt;Capacity</title>
<path fill="none" stroke="black" d="M170.09,-247.75C172.82,-221.04 178.19,-168.51 181.51,-136.01"/>
<polygon fill="black" stroke="black" points="184.99,-136.44 182.52,-126.13 178.02,-135.73 184.99,-136.44"/>
<text xml:space="preserve" text-anchor="middle" x="249.2" y="-188.8" font-family="Arial" font-size="11.00">i72::cardinality_of «exactly 1» </text>
</g>
<!-- https&#45;&gt;Na08f6c914fe4477f8768124e26d93047 -->
<g id="edge5" class="edge">
<title>https://standards.iso.org/iso&#45;iec/5087/&#45;1/ed&#45;1/en/ontology/CityUnits/CapacitySize&#45;&gt;Na08f6c914fe4477f8768124e26d93047</title>
<path fill="none" stroke="black" stroke-dasharray="5,2" d="M195.09,-260.51C235.44,-253.89 308.86,-239.25 324.38,-218.5 366.02,-162.8 287,-93.68 237.69,-58.28"/>
<polygon fill="black" stroke="black" points="240,-55.63 229.8,-52.74 235.97,-61.35 240,-55.63"/>
<text xml:space="preserve" text-anchor="middle" x="400.9" y="-146.05" font-family="Arial" font-size="11.00">onProperty: i72::value «only» </text>
</g>
</g>
</svg>
