<?xml version="1.0" encoding="UTF-8" standalone="no"?>
<!DOCTYPE svg PUBLIC "-//W3C//DTD SVG 1.1//EN"
 "http://www.w3.org/Graphics/SVG/1.1/DTD/svg11.dtd">
<!-- Generated by graphviz version 13.1.0 (20250701.0955)
 -->
<!-- Pages: 1 -->
<svg width="607pt" height="132pt"
 viewBox="0.00 0.00 607.00 132.00" xmlns="http://www.w3.org/2000/svg" xmlns:xlink="http://www.w3.org/1999/xlink">
<g id="graph0" class="graph" transform="scale(1 1) rotate(0) translate(4 128)">
<polygon fill="white" stroke="none" points="-4,4 -4,-128 602.75,-128 602.75,4 -4,4"/>
<g id="clust2" class="cluster">
<title>cluster_associated</title>
</g>
<!-- CityUnitsThing -->
<g id="node1" class="node">
<title>CityUnitsThing</title>
<g id="a_node1"><a xlink:href="../classes/CityUnitsThing.md" xlink:title="&lt;TABLE&gt;">
<polygon fill="lightgray" stroke="none" points="1,-25.88 1,-42.12 82.5,-42.12 82.5,-25.88 1,-25.88"/>
<text xml:space="preserve" text-anchor="start" x="2" y="-29.73" font-family="Arial" font-size="12.00">CityUnitsThing</text>
<polygon fill="none" stroke="black" points="0,-24.88 0,-43.12 83.5,-43.12 83.5,-24.88 0,-24.88"/>
</a>
</g>
</g>
<!-- https://standards.iso.org/iso&#45;iec/5087/&#45;1/ed&#45;1/en/ontology/CityUnits/Capacity -->
<g id="node2" class="node">
<title>https://standards.iso.org/iso&#45;iec/5087/&#45;1/ed&#45;1/en/ontology/CityUnits/Capacity</title>
<g id="a_node2"><a xlink:href="../classes/https://standards.iso.org/iso-iec/5087/-1/ed-1/en/ontology/CityUnits/Capacity.md" xlink:title="&lt;TABLE&gt;">
<polygon fill="lightgray" stroke="none" points="102.25,-25.88 102.25,-42.12 509.25,-42.12 509.25,-25.88 102.25,-25.88"/>
<text xml:space="preserve" text-anchor="start" x="103.25" y="-29.73" font-family="Arial" font-size="12.00">https:://standards.iso.org/iso&#45;iec/5087/&#45;1/ed&#45;1/en/ontology/CityUnits/Capacity</text>
<polygon fill="none" stroke="black" points="101.25,-24.88 101.25,-43.12 510.25,-43.12 510.25,-24.88 101.25,-24.88"/>
</a>
</g>
</g>
<!-- Invis -->
<!-- https -->
<g id="node4" class="node">
<title>https</title>
<text xml:space="preserve" text-anchor="middle" x="41.75" y="-101.72" font-family="Arial" font-size="12.00">https</text>
</g>
<!-- https&#45;&gt;CityUnitsThing -->
<g id="edge1" class="edge">
<title>https://standards.iso.org/iso&#45;iec/5087/&#45;1/ed&#45;1/en/ontology/CityUnits/Capacity&#45;&gt;CityUnitsThing</title>
<path fill="none" stroke="black" d="M41.75,-88.05C41.75,-80.57 41.75,-71.58 41.75,-63.14"/>
<polygon fill="none" stroke="black" points="45.25,-63.3 41.75,-53.3 38.25,-63.3 45.25,-63.3"/>
</g>
</g>
</svg>
