<?xml version="1.0" encoding="UTF-8" standalone="no"?>
<!DOCTYPE svg PUBLIC "-//W3C//DTD SVG 1.1//EN"
 "http://www.w3.org/Graphics/SVG/1.1/DTD/svg11.dtd">
<!-- Generated by graphviz version 13.1.0 (20250701.0955)
 -->
<!-- Pages: 1 -->
<svg width="944pt" height="292pt"
 viewBox="0.00 0.00 944.00 292.00" xmlns="http://www.w3.org/2000/svg" xmlns:xlink="http://www.w3.org/1999/xlink">
<g id="graph0" class="graph" transform="scale(1 1) rotate(0) translate(4 287.5)">
<polygon fill="white" stroke="none" points="-4,4 -4,-287.5 939.88,-287.5 939.88,4 -4,4"/>
<g id="clust2" class="cluster">
<title>cluster_associated</title>
</g>
<!-- i72__Unit_of_measureDivision -->
<g id="node1" class="node">
<title>i72__Unit_of_measureDivision</title>
<g id="a_node1"><a xlink:href="../classes/i72::Unit_of_measureDivision.md" xlink:title="&lt;TABLE&gt;">
<polygon fill="lightgray" stroke="none" points="1,-184.38 1,-200.62 166.5,-200.62 166.5,-184.38 1,-184.38"/>
<text xml:space="preserve" text-anchor="start" x="2" y="-188.22" font-family="Arial" font-size="12.00">i72::::Unit_of_measureDivision</text>
<polygon fill="none" stroke="black" points="0,-183.38 0,-201.62 167.5,-201.62 167.5,-183.38 0,-183.38"/>
</a>
</g>
</g>
<!-- https://standards.iso.org/iso&#45;iec/5087/&#45;1/ed&#45;1/en/ontology/CityUnits/CardinalityUnitPerTime -->
<g id="node2" class="node">
<title>https://standards.iso.org/iso&#45;iec/5087/&#45;1/ed&#45;1/en/ontology/CityUnits/CardinalityUnitPerTime</title>
<g id="a_node2"><a xlink:href="../classes/https://standards.iso.org/iso-iec/5087/-1/ed-1/en/ontology/CityUnits/CardinalityUnitPerTime.md" xlink:title="&lt;TABLE&gt;">
<polygon fill="lightgray" stroke="none" points="450.62,-184.38 450.62,-200.62 934.88,-200.62 934.88,-184.38 450.62,-184.38"/>
<text xml:space="preserve" text-anchor="start" x="451.62" y="-188.22" font-family="Arial" font-size="12.00">https:://standards.iso.org/iso&#45;iec/5087/&#45;1/ed&#45;1/en/ontology/CityUnits/CardinalityUnitPerTime</text>
<polygon fill="none" stroke="black" points="449.62,-183.38 449.62,-201.62 935.88,-201.62 935.88,-183.38 449.62,-183.38"/>
</a>
</g>
</g>
<!-- Invis -->
<!-- TimeUnit -->
<g id="node4" class="node">
<title>TimeUnit</title>
<g id="a_node4"><a xlink:href="../classes/TimeUnit.md" xlink:title="&lt;TABLE&gt;">
<polygon fill="lightgray" stroke="none" points="218.75,-98.88 218.75,-115.12 268.75,-115.12 268.75,-98.88 218.75,-98.88"/>
<text xml:space="preserve" text-anchor="start" x="219.75" y="-102.72" font-family="Arial" font-size="12.00">TimeUnit</text>
<polygon fill="none" stroke="black" points="217.75,-97.88 217.75,-116.12 269.75,-116.12 269.75,-97.88 217.75,-97.88"/>
</a>
</g>
</g>
<!-- Invis&#45;&gt;TimeUnit -->
<!-- i72__Cardinality_unit -->
<g id="node5" class="node">
<title>i72__Cardinality_unit</title>
<g id="a_node5"><a xlink:href="../classes/i72::Cardinality_unit.md" xlink:title="&lt;TABLE&gt;">
<polygon fill="lightgray" stroke="none" points="186.5,-25.88 186.5,-42.12 301,-42.12 301,-25.88 186.5,-25.88"/>
<text xml:space="preserve" text-anchor="start" x="187.5" y="-29.73" font-family="Arial" font-size="12.00">i72::::Cardinality_unit</text>
<polygon fill="none" stroke="black" points="185.5,-24.88 185.5,-43.12 302,-43.12 302,-24.88 185.5,-24.88"/>
</a>
</g>
</g>
<!-- TimeUnit&#45;&gt;i72__Cardinality_unit -->
<!-- https -->
<g id="node6" class="node">
<title>https</title>
<text xml:space="preserve" text-anchor="middle" x="259.75" y="-261.23" font-family="Arial" font-size="12.00">https</text>
</g>
<!-- https&#45;&gt;i72__Unit_of_measureDivision -->
<g id="edge1" class="edge">
<title>https://standards.iso.org/iso&#45;iec/5087/&#45;1/ed&#45;1/en/ontology/CityUnits/CardinalityUnitPerTime&#45;&gt;i72__Unit_of_measureDivision</title>
<path fill="none" stroke="black" d="M233.02,-253.72C207.45,-243.4 168.17,-227.55 136.32,-214.71"/>
<polygon fill="none" stroke="black" points="137.82,-211.54 127.24,-211.04 135.2,-218.03 137.82,-211.54"/>
</g>
<!-- https&#45;&gt;Invis -->
<!-- https&#45;&gt;TimeUnit -->
<g id="edge5" class="edge">
<title>https://standards.iso.org/iso&#45;iec/5087/&#45;1/ed&#45;1/en/ontology/CityUnits/CardinalityUnitPerTime&#45;&gt;TimeUnit</title>
<path fill="none" stroke="black" d="M258.04,-247.75C255.31,-221.04 249.94,-168.51 246.61,-136.01"/>
<polygon fill="black" stroke="black" points="250.1,-135.73 245.6,-126.13 243.14,-136.44 250.1,-135.73"/>
<text xml:space="preserve" text-anchor="middle" x="313.87" y="-188.8" font-family="Arial" font-size="11.00">i72::denominator «only» </text>
</g>
<!-- https&#45;&gt;i72__Cardinality_unit -->
<g id="edge6" class="edge">
<title>https://standards.iso.org/iso&#45;iec/5087/&#45;1/ed&#45;1/en/ontology/CityUnits/CardinalityUnitPerTime&#45;&gt;i72__Cardinality_unit</title>
<path fill="none" stroke="black" d="M286.67,-262.37C314.5,-258.58 356.66,-247.99 376.75,-218.5 387.76,-202.34 384.02,-192.65 376.75,-174.5 357,-125.16 310.56,-83.35 278.16,-58.71"/>
<polygon fill="black" stroke="black" points="280.34,-55.98 270.22,-52.83 276.17,-61.6 280.34,-55.98"/>
<text xml:space="preserve" text-anchor="middle" x="420.91" y="-146.05" font-family="Arial" font-size="11.00">i72::numerator «only» </text>
</g>
</g>
</svg>
