<?xml version="1.0" encoding="UTF-8" standalone="no"?>
<!DOCTYPE svg PUBLIC "-//W3C//DTD SVG 1.1//EN"
 "http://www.w3.org/Graphics/SVG/1.1/DTD/svg11.dtd">
<!-- Generated by graphviz version 13.1.0 (20250701.0955)
 -->
<!-- Pages: 1 -->
<svg width="698pt" height="132pt"
 viewBox="0.00 0.00 698.00 132.00" xmlns="http://www.w3.org/2000/svg" xmlns:xlink="http://www.w3.org/1999/xlink">
<g id="graph0" class="graph" transform="scale(1 1) rotate(0) translate(4 128)">
<polygon fill="white" stroke="none" points="-4,4 -4,-128 694,-128 694,4 -4,4"/>
<g id="clust2" class="cluster">
<title>cluster_associated</title>
</g>
<!-- i72__Unit_of_measure -->
<g id="node1" class="node">
<title>i72__Unit_of_measure</title>
<g id="a_node1"><a xlink:href="../classes/i72::Unit_of_measure.md" xlink:title="&lt;TABLE&gt;">
<polygon fill="lightgray" stroke="none" points="1,-25.88 1,-42.12 123,-42.12 123,-25.88 1,-25.88"/>
<text xml:space="preserve" text-anchor="start" x="2" y="-29.73" font-family="Arial" font-size="12.00">i72::::Unit_of_measure</text>
<polygon fill="none" stroke="black" points="0,-24.88 0,-43.12 124,-43.12 124,-24.88 0,-24.88"/>
</a>
</g>
</g>
<!-- https://standards.iso.org/iso&#45;iec/5087/&#45;1/ed&#45;1/en/ontology/CityUnits/Geo_Position_unit -->
<g id="node2" class="node">
<title>https://standards.iso.org/iso&#45;iec/5087/&#45;1/ed&#45;1/en/ontology/CityUnits/Geo_Position_unit</title>
<g id="a_node2"><a xlink:href="../classes/https://standards.iso.org/iso-iec/5087/-1/ed-1/en/ontology/CityUnits/Geo_Position_unit.md" xlink:title="&lt;TABLE&gt;">
<polygon fill="lightgray" stroke="none" points="142.62,-25.88 142.62,-42.12 601.38,-42.12 601.38,-25.88 142.62,-25.88"/>
<text xml:space="preserve" text-anchor="start" x="143.62" y="-29.73" font-family="Arial" font-size="12.00">https:://standards.iso.org/iso&#45;iec/5087/&#45;1/ed&#45;1/en/ontology/CityUnits/Geo_Position_unit</text>
<polygon fill="none" stroke="black" points="141.62,-24.88 141.62,-43.12 602.38,-43.12 602.38,-24.88 141.62,-24.88"/>
</a>
</g>
</g>
<!-- Invis -->
<!-- https -->
<g id="node4" class="node">
<title>https</title>
<text xml:space="preserve" text-anchor="middle" x="62" y="-101.72" font-family="Arial" font-size="12.00">https</text>
</g>
<!-- https&#45;&gt;i72__Unit_of_measure -->
<g id="edge1" class="edge">
<title>https://standards.iso.org/iso&#45;iec/5087/&#45;1/ed&#45;1/en/ontology/CityUnits/Geo_Position_unit&#45;&gt;i72__Unit_of_measure</title>
<path fill="none" stroke="black" d="M62,-88.05C62,-80.57 62,-71.58 62,-63.14"/>
<polygon fill="none" stroke="black" points="65.5,-63.3 62,-53.3 58.5,-63.3 65.5,-63.3"/>
</g>
</g>
</svg>
