<?xml version="1.0" encoding="UTF-8" standalone="no"?>
<!DOCTYPE svg PUBLIC "-//W3C//DTD SVG 1.1//EN"
 "http://www.w3.org/Graphics/SVG/1.1/DTD/svg11.dtd">
<!-- Generated by graphviz version 13.1.0 (20250701.0955)
 -->
<!-- Pages: 1 -->
<svg width="852pt" height="206pt"
 viewBox="0.00 0.00 852.00 206.00" xmlns="http://www.w3.org/2000/svg" xmlns:xlink="http://www.w3.org/1999/xlink">
<g id="graph0" class="graph" transform="scale(1 1) rotate(0) translate(4 202)">
<polygon fill="white" stroke="none" points="-4,4 -4,-202 848.12,-202 848.12,4 -4,4"/>
<g id="clust2" class="cluster">
<title>cluster_associated</title>
</g>
<!-- i72__Measure -->
<g id="node1" class="node">
<title>i72__Measure</title>
<g id="a_node1"><a xlink:href="../classes/i72::Measure.md" xlink:title="&lt;TABLE&gt;">
<polygon fill="lightgray" stroke="none" points="1,-98.88 1,-115.12 78,-115.12 78,-98.88 1,-98.88"/>
<text xml:space="preserve" text-anchor="start" x="2" y="-102.72" font-family="Arial" font-size="12.00">i72::::Measure</text>
<polygon fill="none" stroke="black" points="0,-97.88 0,-116.12 79,-116.12 79,-97.88 0,-97.88"/>
</a>
</g>
</g>
<!-- https://standards.iso.org/iso&#45;iec/5087/&#45;1/ed&#45;1/en/ontology/CityUnits/MonetaryValue -->
<g id="node2" class="node">
<title>https://standards.iso.org/iso&#45;iec/5087/&#45;1/ed&#45;1/en/ontology/CityUnits/MonetaryValue</title>
<g id="a_node2"><a xlink:href="../classes/https://standards.iso.org/iso-iec/5087/-1/ed-1/en/ontology/CityUnits/MonetaryValue.md" xlink:title="&lt;TABLE&gt;">
<polygon fill="lightgray" stroke="none" points="403.88,-107 403.88,-123.25 843.12,-123.25 843.12,-107 403.88,-107"/>
<text xml:space="preserve" text-anchor="start" x="404.88" y="-110.85" font-family="Arial" font-size="12.00">https:://standards.iso.org/iso&#45;iec/5087/&#45;1/ed&#45;1/en/ontology/CityUnits/MonetaryValue</text>
<text xml:space="preserve" text-anchor="start" x="404.88" y="-94.6" font-family="Arial" font-size="12.00">hasRelativeYear: gYear «exactly 1»</text>
<polygon fill="none" stroke="black" points="402.88,-89.75 402.88,-124.25 844.12,-124.25 844.12,-89.75 402.88,-89.75"/>
</a>
</g>
</g>
<!-- Invis -->
<!-- i72__Monetary_unit -->
<g id="node4" class="node">
<title>i72__Monetary_unit</title>
<g id="a_node4"><a xlink:href="../classes/i72::Monetary_unit.md" xlink:title="&lt;TABLE&gt;">
<polygon fill="lightgray" stroke="none" points="97.38,-25.88 97.38,-42.12 203.62,-42.12 203.62,-25.88 97.38,-25.88"/>
<text xml:space="preserve" text-anchor="start" x="98.38" y="-29.73" font-family="Arial" font-size="12.00">i72::::Monetary_unit</text>
<polygon fill="none" stroke="black" points="96.38,-24.88 96.38,-43.12 204.62,-43.12 204.62,-24.88 96.38,-24.88"/>
</a>
</g>
</g>
<!-- Invis&#45;&gt;i72__Monetary_unit -->
<!-- https -->
<g id="node5" class="node">
<title>https</title>
<text xml:space="preserve" text-anchor="middle" x="124.5" y="-175.72" font-family="Arial" font-size="12.00">https</text>
</g>
<!-- https&#45;&gt;i72__Measure -->
<g id="edge1" class="edge">
<title>https://standards.iso.org/iso&#45;iec/5087/&#45;1/ed&#45;1/en/ontology/CityUnits/MonetaryValue&#45;&gt;i72__Measure</title>
<path fill="none" stroke="black" d="M104.36,-162.17C93.64,-153.22 80.27,-142.05 68.45,-132.18"/>
<polygon fill="none" stroke="black" points="70.87,-129.65 60.96,-125.92 66.39,-135.02 70.87,-129.65"/>
</g>
<!-- https&#45;&gt;Invis -->
<!-- https&#45;&gt;i72__Monetary_unit -->
<g id="edge4" class="edge">
<title>https://standards.iso.org/iso&#45;iec/5087/&#45;1/ed&#45;1/en/ontology/CityUnits/MonetaryValue&#45;&gt;i72__Monetary_unit</title>
<path fill="none" stroke="black" stroke-dasharray="5,2" d="M141.96,-162.33C149.18,-154.25 156.73,-143.93 160.5,-133 168.38,-110.16 164.51,-82.68 159.47,-62.64"/>
<polygon fill="black" stroke="black" points="162.91,-61.94 156.85,-53.25 156.17,-63.83 162.91,-61.94"/>
<text xml:space="preserve" text-anchor="middle" x="263.62" y="-103.3" font-family="Arial" font-size="11.00">onProperty: i72::unit_of_measure «only» </text>
</g>
</g>
</svg>
