<?xml version="1.0" encoding="UTF-8" standalone="no"?>
<!DOCTYPE svg PUBLIC "-//W3C//DTD SVG 1.1//EN"
 "http://www.w3.org/Graphics/SVG/1.1/DTD/svg11.dtd">
<!-- Generated by graphviz version 13.1.0 (20250701.0955)
 -->
<!-- Pages: 1 -->
<svg width="810pt" height="206pt"
 viewBox="0.00 0.00 810.00 206.00" xmlns="http://www.w3.org/2000/svg" xmlns:xlink="http://www.w3.org/1999/xlink">
<g id="graph0" class="graph" transform="scale(1 1) rotate(0) translate(4 202)">
<polygon fill="white" stroke="none" points="-4,4 -4,-202 805.5,-202 805.5,4 -4,4"/>
<g id="clust2" class="cluster">
<title>cluster_associated</title>
</g>
<!-- AmountOfMoney -->
<g id="node1" class="node">
<title>AmountOfMoney</title>
<g id="a_node1"><a xlink:href="../classes/AmountOfMoney.md" xlink:title="&lt;TABLE&gt;">
<polygon fill="lightgray" stroke="none" points="1,-98.88 1,-115.12 92.25,-115.12 92.25,-98.88 1,-98.88"/>
<text xml:space="preserve" text-anchor="start" x="2" y="-102.72" font-family="Arial" font-size="12.00">AmountOfMoney</text>
<polygon fill="none" stroke="black" points="0,-97.88 0,-116.12 93.25,-116.12 93.25,-97.88 0,-97.88"/>
</a>
</g>
</g>
<!-- https://standards.iso.org/iso&#45;iec/5087/&#45;1/ed&#45;1/en/ontology/CityUnits/ValueOfMoney -->
<g id="node2" class="node">
<title>https://standards.iso.org/iso&#45;iec/5087/&#45;1/ed&#45;1/en/ontology/CityUnits/ValueOfMoney</title>
<g id="a_node2"><a xlink:href="../classes/https://standards.iso.org/iso-iec/5087/-1/ed-1/en/ontology/CityUnits/ValueOfMoney.md" xlink:title="&lt;TABLE&gt;">
<polygon fill="lightgray" stroke="none" points="362.75,-98.88 362.75,-115.12 800.5,-115.12 800.5,-98.88 362.75,-98.88"/>
<text xml:space="preserve" text-anchor="start" x="363.75" y="-102.72" font-family="Arial" font-size="12.00">https:://standards.iso.org/iso&#45;iec/5087/&#45;1/ed&#45;1/en/ontology/CityUnits/ValueOfMoney</text>
<polygon fill="none" stroke="black" points="361.75,-97.88 361.75,-116.12 801.5,-116.12 801.5,-97.88 361.75,-97.88"/>
</a>
</g>
</g>
<!-- Invis -->
<!-- MonetaryValue -->
<g id="node4" class="node">
<title>MonetaryValue</title>
<g id="a_node4"><a xlink:href="../classes/MonetaryValue.md" xlink:title="&lt;TABLE&gt;">
<polygon fill="lightgray" stroke="none" points="111.88,-25.88 111.88,-42.12 193.38,-42.12 193.38,-25.88 111.88,-25.88"/>
<text xml:space="preserve" text-anchor="start" x="112.88" y="-29.73" font-family="Arial" font-size="12.00">MonetaryValue</text>
<polygon fill="none" stroke="black" points="110.88,-24.88 110.88,-43.12 194.38,-43.12 194.38,-24.88 110.88,-24.88"/>
</a>
</g>
</g>
<!-- Invis&#45;&gt;MonetaryValue -->
<!-- https -->
<g id="node5" class="node">
<title>https</title>
<text xml:space="preserve" text-anchor="middle" x="138.62" y="-175.72" font-family="Arial" font-size="12.00">https</text>
</g>
<!-- https&#45;&gt;AmountOfMoney -->
<g id="edge1" class="edge">
<title>https://standards.iso.org/iso&#45;iec/5087/&#45;1/ed&#45;1/en/ontology/CityUnits/ValueOfMoney&#45;&gt;AmountOfMoney</title>
<path fill="none" stroke="black" d="M116.82,-162.17C105.11,-153.13 90.46,-141.83 77.59,-131.89"/>
<polygon fill="none" stroke="black" points="79.84,-129.21 69.79,-125.88 75.57,-134.76 79.84,-129.21"/>
</g>
<!-- https&#45;&gt;Invis -->
<!-- https&#45;&gt;MonetaryValue -->
<g id="edge4" class="edge">
<title>https://standards.iso.org/iso&#45;iec/5087/&#45;1/ed&#45;1/en/ontology/CityUnits/ValueOfMoney&#45;&gt;MonetaryValue</title>
<path fill="none" stroke="black" stroke-dasharray="5,2" d="M156.09,-162.33C163.31,-154.25 170.86,-143.93 174.62,-133 182.68,-109.63 175.07,-82.1 166.67,-62.17"/>
<polygon fill="black" stroke="black" points="169.98,-60.99 162.65,-53.34 163.61,-63.89 169.98,-60.99"/>
<text xml:space="preserve" text-anchor="middle" x="249.3" y="-103.3" font-family="Arial" font-size="11.00">onProperty: i72::value «only» </text>
</g>
</g>
</svg>
