<?xml version="1.0" encoding="UTF-8" standalone="no"?>
<!DOCTYPE svg PUBLIC "-//W3C//DTD SVG 1.1//EN"
 "http://www.w3.org/Graphics/SVG/1.1/DTD/svg11.dtd">
<!-- Generated by graphviz version 13.1.0 (20250701.0955)
 -->
<!-- Pages: 1 -->
<svg width="714pt" height="132pt"
 viewBox="0.00 0.00 714.00 132.00" xmlns="http://www.w3.org/2000/svg" xmlns:xlink="http://www.w3.org/1999/xlink">
<g id="graph0" class="graph" transform="scale(1 1) rotate(0) translate(4 128)">
<polygon fill="white" stroke="none" points="-4,4 -4,-128 710.25,-128 710.25,4 -4,4"/>
<g id="clust2" class="cluster">
<title>cluster_associated</title>
</g>
<!-- ComplexAgreement -->
<g id="node1" class="node">
<title>ComplexAgreement</title>
<g id="a_node1"><a xlink:href="../classes/ComplexAgreement.md" xlink:title="&lt;TABLE&gt;">
<polygon fill="lightgray" stroke="none" points="1,-25.88 1,-42.12 109.5,-42.12 109.5,-25.88 1,-25.88"/>
<text xml:space="preserve" text-anchor="start" x="2" y="-29.73" font-family="Arial" font-size="12.00">ComplexAgreement</text>
<polygon fill="none" stroke="black" points="0,-24.88 0,-43.12 110.5,-43.12 110.5,-24.88 0,-24.88"/>
</a>
</g>
</g>
<!-- https://standards.iso.org/iso&#45;iec/5087/&#45;1/ed&#45;1/en/ontology/Agreement/DisjunctiveAgreement -->
<g id="node2" class="node">
<title>https://standards.iso.org/iso&#45;iec/5087/&#45;1/ed&#45;1/en/ontology/Agreement/DisjunctiveAgreement</title>
<g id="a_node2"><a xlink:href="../classes/https://standards.iso.org/iso-iec/5087/-1/ed-1/en/ontology/Agreement/DisjunctiveAgreement.md" xlink:title="&lt;TABLE&gt;">
<polygon fill="lightgray" stroke="none" points="129.62,-25.88 129.62,-42.12 616.88,-42.12 616.88,-25.88 129.62,-25.88"/>
<text xml:space="preserve" text-anchor="start" x="130.62" y="-29.73" font-family="Arial" font-size="12.00">https:://standards.iso.org/iso&#45;iec/5087/&#45;1/ed&#45;1/en/ontology/Agreement/DisjunctiveAgreement</text>
<polygon fill="none" stroke="black" points="128.62,-24.88 128.62,-43.12 617.88,-43.12 617.88,-24.88 128.62,-24.88"/>
</a>
</g>
</g>
<!-- Invis -->
<!-- https -->
<g id="node4" class="node">
<title>https</title>
<text xml:space="preserve" text-anchor="middle" x="55.25" y="-101.72" font-family="Arial" font-size="12.00">https</text>
</g>
<!-- https&#45;&gt;ComplexAgreement -->
<g id="edge1" class="edge">
<title>https://standards.iso.org/iso&#45;iec/5087/&#45;1/ed&#45;1/en/ontology/Agreement/DisjunctiveAgreement&#45;&gt;ComplexAgreement</title>
<path fill="none" stroke="black" d="M55.25,-88.05C55.25,-80.57 55.25,-71.58 55.25,-63.14"/>
<polygon fill="none" stroke="black" points="58.75,-63.3 55.25,-53.3 51.75,-63.3 58.75,-63.3"/>
</g>
</g>
</svg>
