<?xml version="1.0" encoding="UTF-8" standalone="no"?>
<!DOCTYPE svg PUBLIC "-//W3C//DTD SVG 1.1//EN"
 "http://www.w3.org/Graphics/SVG/1.1/DTD/svg11.dtd">
<!-- Generated by graphviz version 13.1.0 (20250701.0955)
 -->
<!-- Pages: 1 -->
<svg width="1557pt" height="450pt"
 viewBox="0.00 0.00 1557.00 450.00" xmlns="http://www.w3.org/2000/svg" xmlns:xlink="http://www.w3.org/1999/xlink">
<g id="graph0" class="graph" transform="scale(1 1) rotate(0) translate(4 446)">
<polygon fill="white" stroke="none" points="-4,4 -4,-446 1553.25,-446 1553.25,4 -4,4"/>
<g id="clust2" class="cluster">
<title>cluster_associated</title>
</g>
<!-- ActivityOntologyThing -->
<g id="node1" class="node">
<title>ActivityOntologyThing</title>
<g id="a_node1"><a xlink:href="../classes/ActivityOntologyThing.md" xlink:title="&lt;TABLE&gt;">
<polygon fill="lightgray" stroke="none" points="1,-342.88 1,-359.12 120,-359.12 120,-342.88 1,-342.88"/>
<text xml:space="preserve" text-anchor="start" x="2" y="-346.73" font-family="Arial" font-size="12.00">ActivityOntologyThing</text>
<polygon fill="none" stroke="black" points="0,-341.88 0,-360.12 121,-360.12 121,-341.88 0,-341.88"/>
</a>
</g>
</g>
<!-- https://standards.iso.org/iso&#45;iec/5087/&#45;1/ed&#45;1/en/ontology/Activity/Activity -->
<g id="node2" class="node">
<title>https://standards.iso.org/iso&#45;iec/5087/&#45;1/ed&#45;1/en/ontology/Activity/Activity</title>
<g id="a_node2"><a xlink:href="../classes/https://standards.iso.org/iso-iec/5087/-1/ed-1/en/ontology/Activity/Activity.md" xlink:title="&lt;TABLE&gt;">
<polygon fill="lightgray" stroke="none" points="1160.75,-342.88 1160.75,-359.12 1548.25,-359.12 1548.25,-342.88 1160.75,-342.88"/>
<text xml:space="preserve" text-anchor="start" x="1161.75" y="-346.73" font-family="Arial" font-size="12.00">https:://standards.iso.org/iso&#45;iec/5087/&#45;1/ed&#45;1/en/ontology/Activity/Activity</text>
<polygon fill="none" stroke="black" points="1159.75,-341.88 1159.75,-360.12 1549.25,-360.12 1549.25,-341.88 1159.75,-341.88"/>
</a>
</g>
</g>
<!-- Invis -->
<!-- Activity -->
<g id="node4" class="node">
<title>Activity</title>
<g id="a_node4"><a xlink:href="../classes/Activity.md" xlink:title="&lt;TABLE&gt;">
<polygon fill="lightgray" stroke="none" points="170.38,-257.38 170.38,-273.62 210.62,-273.62 210.62,-257.38 170.38,-257.38"/>
<text xml:space="preserve" text-anchor="start" x="171.38" y="-261.23" font-family="Arial" font-size="12.00">Activity</text>
<polygon fill="none" stroke="black" points="169.38,-256.38 169.38,-274.62 211.62,-274.62 211.62,-256.38 169.38,-256.38"/>
</a>
</g>
</g>
<!-- Invis&#45;&gt;Activity -->
<!-- ActivityStatus -->
<g id="node5" class="node">
<title>ActivityStatus</title>
<g id="a_node5"><a xlink:href="../classes/ActivityStatus.md" xlink:title="&lt;TABLE&gt;">
<polygon fill="lightgray" stroke="none" points="142.5,-171.88 142.5,-188.12 216.5,-188.12 216.5,-171.88 142.5,-171.88"/>
<text xml:space="preserve" text-anchor="start" x="143.5" y="-175.72" font-family="Arial" font-size="12.00">ActivityStatus</text>
<polygon fill="none" stroke="black" points="141.5,-170.88 141.5,-189.12 217.5,-189.12 217.5,-170.88 141.5,-170.88"/>
</a>
</g>
</g>
<!-- Activity&#45;&gt;ActivityStatus -->
<!-- State -->
<g id="node6" class="node">
<title>State</title>
<g id="a_node6"><a xlink:href="../classes/State.md" xlink:title="&lt;TABLE&gt;">
<polygon fill="lightgray" stroke="none" points="175.62,-98.88 175.62,-115.12 205.38,-115.12 205.38,-98.88 175.62,-98.88"/>
<text xml:space="preserve" text-anchor="start" x="176.62" y="-102.72" font-family="Arial" font-size="12.00">State</text>
<polygon fill="none" stroke="black" points="174.62,-97.88 174.62,-116.12 206.38,-116.12 206.38,-97.88 174.62,-97.88"/>
</a>
</g>
</g>
<!-- ActivityStatus&#45;&gt;State -->
<!-- time__Interval -->
<g id="node7" class="node">
<title>time__Interval</title>
<polygon fill="lightgray" stroke="none" points="140.75,-25.88 140.75,-42.12 216.25,-42.12 216.25,-25.88 140.75,-25.88"/>
<text xml:space="preserve" text-anchor="start" x="141.75" y="-29.73" font-family="Arial" font-size="12.00">time::::Interval</text>
<polygon fill="none" stroke="black" points="139.75,-24.88 139.75,-43.12 217.25,-43.12 217.25,-24.88 139.75,-24.88"/>
</g>
<!-- State&#45;&gt;time__Interval -->
<!-- https -->
<g id="node8" class="node">
<title>https</title>
<text xml:space="preserve" text-anchor="middle" x="674.5" y="-419.73" font-family="Arial" font-size="12.00">https</text>
</g>
<!-- https&#45;&gt;ActivityOntologyThing -->
<g id="edge1" class="edge">
<title>https://standards.iso.org/iso&#45;iec/5087/&#45;1/ed&#45;1/en/ontology/Activity/Activity&#45;&gt;ActivityOntologyThing</title>
<path fill="none" stroke="black" d="M647.72,-421.53C576.36,-417.5 375.77,-405.39 209.5,-388 172.93,-384.17 163.17,-385.93 127.5,-377 122.42,-375.73 117.2,-374.2 112.02,-372.53"/>
<polygon fill="none" stroke="black" points="113.53,-369.35 102.93,-369.43 111.27,-375.97 113.53,-369.35"/>
</g>
<!-- https&#45;&gt;Invis -->
<!-- https&#45;&gt;Activity -->
<g id="edge12" class="edge">
<title>https://standards.iso.org/iso&#45;iec/5087/&#45;1/ed&#45;1/en/ontology/Activity/Activity&#45;&gt;Activity</title>
<path fill="none" stroke="black" d="M647.68,-423.44C564.02,-424.32 309.47,-423.07 244,-377 216.49,-357.64 202.56,-320.15 195.93,-294.25"/>
<polygon fill="black" stroke="black" points="199.39,-293.69 193.72,-284.74 192.58,-295.27 199.39,-293.69"/>
<text xml:space="preserve" text-anchor="middle" x="297.25" y="-347.3" font-family="Arial" font-size="11.00">hasSubactivity «only» </text>
</g>
<!-- https&#45;&gt;Activity -->
<g id="edge13" class="edge">
<title>https://standards.iso.org/iso&#45;iec/5087/&#45;1/ed&#45;1/en/ontology/Activity/Activity&#45;&gt;Activity</title>
<path fill="none" stroke="black" d="M647.82,-421.17C585.18,-416.5 430.69,-402.64 386.25,-377 364.43,-364.41 370.69,-348.07 350.5,-333 313.25,-305.19 262.67,-286.73 228.43,-276.46"/>
<polygon fill="black" stroke="black" points="229.51,-273.13 218.94,-273.71 227.57,-279.85 229.51,-273.13"/>
<text xml:space="preserve" text-anchor="middle" x="436.88" y="-347.3" font-family="Arial" font-size="11.00">occursBefore «only» </text>
</g>
<!-- https&#45;&gt;Activity -->
<g id="edge14" class="edge">
<title>https://standards.iso.org/iso&#45;iec/5087/&#45;1/ed&#45;1/en/ontology/Activity/Activity&#45;&gt;Activity</title>
<path fill="none" stroke="black" d="M647.59,-419.68C615.65,-414.71 561.86,-402.95 523.25,-377 502.34,-362.94 508.92,-346.26 487.5,-333 405.12,-282 288.38,-269.94 228.76,-267.2"/>
<polygon fill="black" stroke="black" points="228.93,-263.71 218.8,-266.82 228.66,-270.7 228.93,-263.71"/>
<text xml:space="preserve" text-anchor="middle" x="591.88" y="-347.3" font-family="Arial" font-size="11.00">occursDirectlyBefore «only» </text>
</g>
<!-- https&#45;&gt;ActivityStatus -->
<g id="edge15" class="edge">
<title>https://standards.iso.org/iso&#45;iec/5087/&#45;1/ed&#45;1/en/ontology/Activity/Activity&#45;&gt;ActivityStatus</title>
<path fill="none" stroke="black" d="M676.94,-406.09C678.81,-386.07 678.56,-352.91 660.5,-333 638.92,-309.21 621.34,-323.98 590.5,-315 458.46,-276.54 304.88,-224.49 228.23,-198"/>
<polygon fill="black" stroke="black" points="229.52,-194.74 218.93,-194.78 227.23,-201.36 229.52,-194.74"/>
<text xml:space="preserve" text-anchor="middle" x="644.5" y="-304.55" font-family="Arial" font-size="11.00">hasStatus «exactly 1» </text>
</g>
<!-- https&#45;&gt;State -->
<g id="edge8" class="edge">
<title>https://standards.iso.org/iso&#45;iec/5087/&#45;1/ed&#45;1/en/ontology/Activity/Activity&#45;&gt;State</title>
<path fill="none" stroke="black" d="M685.16,-406.08C699.44,-381.01 720.58,-333.54 698.5,-301.5 698.5,-301.5 345.61,-167.08 228.07,-122.31"/>
<polygon fill="black" stroke="black" points="229.46,-119.09 218.87,-118.81 226.97,-125.64 229.46,-119.09"/>
<text xml:space="preserve" text-anchor="middle" x="685.52" y="-261.8" font-family="Arial" font-size="11.00">causes «only» </text>
</g>
<!-- https&#45;&gt;State -->
<g id="edge9" class="edge">
<title>https://standards.iso.org/iso&#45;iec/5087/&#45;1/ed&#45;1/en/ontology/Activity/Activity&#45;&gt;State</title>
<path fill="none" stroke="black" d="M696.27,-406.12C704.61,-398.28 713.16,-388.21 717.5,-377 738.31,-323.29 757.69,-293.1 722.5,-247.5 661.02,-167.81 340.01,-124.77 228.62,-112.06"/>
<polygon fill="black" stroke="black" points="229.13,-108.59 218.8,-110.96 228.35,-115.55 229.13,-108.59"/>
<text xml:space="preserve" text-anchor="middle" x="784.7" y="-261.8" font-family="Arial" font-size="11.00">enabledBy «only» </text>
</g>
<!-- https&#45;&gt;State -->
<g id="edge10" class="edge">
<title>https://standards.iso.org/iso&#45;iec/5087/&#45;1/ed&#45;1/en/ontology/Activity/Activity&#45;&gt;State</title>
<path fill="none" stroke="black" d="M701.21,-419.01C754.61,-410.29 869.5,-387.4 869.5,-352 869.5,-352 869.5,-352 869.5,-179 869.5,-114.01 371.07,-108.26 228.3,-107.95"/>
<polygon fill="black" stroke="black" points="228.64,-104.45 218.63,-107.94 228.63,-111.45 228.64,-104.45"/>
<text xml:space="preserve" text-anchor="middle" x="910.75" y="-261.8" font-family="Arial" font-size="11.00">hasEffect «only» </text>
</g>
<!-- https&#45;&gt;State -->
<g id="edge11" class="edge">
<title>https://standards.iso.org/iso&#45;iec/5087/&#45;1/ed&#45;1/en/ontology/Activity/Activity&#45;&gt;State</title>
<path fill="none" stroke="black" d="M701.27,-422.63C777.21,-420.87 988.5,-410.68 988.5,-352 988.5,-352 988.5,-352 988.5,-179 988.5,-102.2 895.62,-153.16 819.5,-143 597.06,-113.3 327.1,-108.72 228.71,-108.08"/>
<polygon fill="black" stroke="black" points="228.84,-104.58 218.82,-108.03 228.8,-111.58 228.84,-104.58"/>
<text xml:space="preserve" text-anchor="middle" x="1045.88" y="-261.8" font-family="Arial" font-size="11.00">hasPrecondition «only» </text>
</g>
<!-- https&#45;&gt;time__Interval -->
<g id="edge7" class="edge">
<title>https://standards.iso.org/iso&#45;iec/5087/&#45;1/ed&#45;1/en/ontology/Activity/Activity&#45;&gt;time__Interval</title>
<path fill="none" stroke="black" d="M701.38,-421.68C799.34,-416.52 1131.5,-395.81 1131.5,-352 1131.5,-352 1131.5,-352 1131.5,-106 1131.5,-60.27 424.51,-40.64 228.41,-36.08"/>
<polygon fill="black" stroke="black" points="228.63,-32.58 218.55,-35.85 228.47,-39.58 228.63,-32.58"/>
<text xml:space="preserve" text-anchor="middle" x="1174.62" y="-219.05" font-family="Arial" font-size="11.00">occursAt «some» </text>
</g>
</g>
</svg>
