<?xml version="1.0" encoding="UTF-8" standalone="no"?>
<!DOCTYPE svg PUBLIC "-//W3C//DTD SVG 1.1//EN"
 "http://www.w3.org/Graphics/SVG/1.1/DTD/svg11.dtd">
<!-- Generated by graphviz version 13.1.0 (20250701.0955)
 -->
<!-- Pages: 1 -->
<svg width="656pt" height="132pt"
 viewBox="0.00 0.00 656.00 132.00" xmlns="http://www.w3.org/2000/svg" xmlns:xlink="http://www.w3.org/1999/xlink">
<g id="graph0" class="graph" transform="scale(1 1) rotate(0) translate(4 128)">
<polygon fill="white" stroke="none" points="-4,4 -4,-128 652,-128 652,4 -4,4"/>
<g id="clust2" class="cluster">
<title>cluster_associated</title>
</g>
<!-- NonTerminalState -->
<g id="node1" class="node">
<title>NonTerminalState</title>
<g id="a_node1"><a xlink:href="../classes/NonTerminalState.md" xlink:title="&lt;TABLE&gt;">
<polygon fill="lightgray" stroke="none" points="1,-25.88 1,-42.12 99,-42.12 99,-25.88 1,-25.88"/>
<text xml:space="preserve" text-anchor="start" x="2" y="-29.73" font-family="Arial" font-size="12.00">NonTerminalState</text>
<polygon fill="none" stroke="black" points="0,-24.88 0,-43.12 100,-43.12 100,-24.88 0,-24.88"/>
</a>
</g>
</g>
<!-- https://standards.iso.org/iso&#45;iec/5087/&#45;1/ed&#45;1/en/ontology/Activity/ConjunctiveState -->
<g id="node2" class="node">
<title>https://standards.iso.org/iso&#45;iec/5087/&#45;1/ed&#45;1/en/ontology/Activity/ConjunctiveState</title>
<g id="a_node2"><a xlink:href="../classes/https://standards.iso.org/iso-iec/5087/-1/ed-1/en/ontology/Activity/ConjunctiveState.md" xlink:title="&lt;TABLE&gt;">
<polygon fill="lightgray" stroke="none" points="118.62,-25.88 118.62,-42.12 559.38,-42.12 559.38,-25.88 118.62,-25.88"/>
<text xml:space="preserve" text-anchor="start" x="119.62" y="-29.73" font-family="Arial" font-size="12.00">https:://standards.iso.org/iso&#45;iec/5087/&#45;1/ed&#45;1/en/ontology/Activity/ConjunctiveState</text>
<polygon fill="none" stroke="black" points="117.62,-24.88 117.62,-43.12 560.38,-43.12 560.38,-24.88 117.62,-24.88"/>
</a>
</g>
</g>
<!-- Invis -->
<!-- https -->
<g id="node4" class="node">
<title>https</title>
<text xml:space="preserve" text-anchor="middle" x="50" y="-101.72" font-family="Arial" font-size="12.00">https</text>
</g>
<!-- https&#45;&gt;NonTerminalState -->
<g id="edge1" class="edge">
<title>https://standards.iso.org/iso&#45;iec/5087/&#45;1/ed&#45;1/en/ontology/Activity/ConjunctiveState&#45;&gt;NonTerminalState</title>
<path fill="none" stroke="black" d="M50,-88.05C50,-80.57 50,-71.58 50,-63.14"/>
<polygon fill="none" stroke="black" points="53.5,-63.3 50,-53.3 46.5,-63.3 53.5,-63.3"/>
</g>
</g>
</svg>
