<?xml version="1.0" encoding="UTF-8" standalone="no"?>
<!DOCTYPE svg PUBLIC "-//W3C//DTD SVG 1.1//EN"
 "http://www.w3.org/Graphics/SVG/1.1/DTD/svg11.dtd">
<!-- Generated by graphviz version 13.1.0 (20250701.0955)
 -->
<!-- Pages: 1 -->
<svg width="751pt" height="206pt"
 viewBox="0.00 0.00 751.00 206.00" xmlns="http://www.w3.org/2000/svg" xmlns:xlink="http://www.w3.org/1999/xlink">
<g id="graph0" class="graph" transform="scale(1 1) rotate(0) translate(4 202)">
<polygon fill="white" stroke="none" points="-4,4 -4,-202 746.88,-202 746.88,4 -4,4"/>
<g id="clust2" class="cluster">
<title>cluster_associated</title>
</g>
<!-- TerminalState -->
<g id="node1" class="node">
<title>TerminalState</title>
<g id="a_node1"><a xlink:href="../classes/TerminalState.md" xlink:title="&lt;TABLE&gt;">
<polygon fill="lightgray" stroke="none" points="1,-98.88 1,-115.12 76.5,-115.12 76.5,-98.88 1,-98.88"/>
<text xml:space="preserve" text-anchor="start" x="2" y="-102.72" font-family="Arial" font-size="12.00">TerminalState</text>
<polygon fill="none" stroke="black" points="0,-97.88 0,-116.12 77.5,-116.12 77.5,-97.88 0,-97.88"/>
</a>
</g>
</g>
<!-- https://standards.iso.org/iso&#45;iec/5087/&#45;1/ed&#45;1/en/ontology/Activity/ManifestationState -->
<g id="node2" class="node">
<title>https://standards.iso.org/iso&#45;iec/5087/&#45;1/ed&#45;1/en/ontology/Activity/ManifestationState</title>
<g id="a_node2"><a xlink:href="../classes/https://standards.iso.org/iso-iec/5087/-1/ed-1/en/ontology/Activity/ManifestationState.md" xlink:title="&lt;TABLE&gt;">
<polygon fill="lightgray" stroke="none" points="293.62,-98.88 293.62,-115.12 741.88,-115.12 741.88,-98.88 293.62,-98.88"/>
<text xml:space="preserve" text-anchor="start" x="294.62" y="-102.72" font-family="Arial" font-size="12.00">https:://standards.iso.org/iso&#45;iec/5087/&#45;1/ed&#45;1/en/ontology/Activity/ManifestationState</text>
<polygon fill="none" stroke="black" points="292.62,-97.88 292.62,-116.12 742.88,-116.12 742.88,-97.88 292.62,-97.88"/>
</a>
</g>
</g>
<!-- Invis -->
<!-- Change__Manifestation -->
<g id="node4" class="node">
<title>Change__Manifestation</title>
<polygon fill="lightgray" stroke="none" points="95.75,-25.88 95.75,-42.12 223.75,-42.12 223.75,-25.88 95.75,-25.88"/>
<text xml:space="preserve" text-anchor="start" x="96.75" y="-29.73" font-family="Arial" font-size="12.00">Change::::Manifestation</text>
<polygon fill="none" stroke="black" points="94.75,-24.88 94.75,-43.12 224.75,-43.12 224.75,-24.88 94.75,-24.88"/>
</g>
<!-- Invis&#45;&gt;Change__Manifestation -->
<!-- https -->
<g id="node5" class="node">
<title>https</title>
<text xml:space="preserve" text-anchor="middle" x="122.75" y="-175.72" font-family="Arial" font-size="12.00">https</text>
</g>
<!-- https&#45;&gt;TerminalState -->
<g id="edge1" class="edge">
<title>https://standards.iso.org/iso&#45;iec/5087/&#45;1/ed&#45;1/en/ontology/Activity/ManifestationState&#45;&gt;TerminalState</title>
<path fill="none" stroke="black" d="M102.84,-162.17C92.25,-153.22 79.04,-142.05 67.36,-132.18"/>
<polygon fill="none" stroke="black" points="69.86,-129.71 59.96,-125.93 65.34,-135.06 69.86,-129.71"/>
</g>
<!-- https&#45;&gt;Invis -->
<!-- https&#45;&gt;Change__Manifestation -->
<g id="edge4" class="edge">
<title>https://standards.iso.org/iso&#45;iec/5087/&#45;1/ed&#45;1/en/ontology/Activity/ManifestationState&#45;&gt;Change__Manifestation</title>
<path fill="none" stroke="black" d="M140.16,-162.31C147.37,-154.23 154.93,-143.91 158.75,-133 166.66,-110.42 166.19,-83.08 164.15,-63.02"/>
<polygon fill="black" stroke="black" points="167.65,-62.86 162.96,-53.36 160.71,-63.71 167.65,-62.86"/>
<text xml:space="preserve" text-anchor="middle" x="210.04" y="-103.3" font-family="Arial" font-size="11.00">satisfiedBy «only» </text>
</g>
</g>
</svg>
