<?xml version="1.0" encoding="UTF-8" standalone="no"?>
<!DOCTYPE svg PUBLIC "-//W3C//DTD SVG 1.1//EN"
 "http://www.w3.org/Graphics/SVG/1.1/DTD/svg11.dtd">
<!-- Generated by graphviz version 13.1.0 (20250701.0955)
 -->
<!-- Pages: 1 -->
<svg width="616pt" height="146pt"
 viewBox="0.00 0.00 616.00 146.00" xmlns="http://www.w3.org/2000/svg" xmlns:xlink="http://www.w3.org/1999/xlink">
<g id="graph0" class="graph" transform="scale(1 1) rotate(0) translate(4 141.5)">
<polygon fill="white" stroke="none" points="-4,4 -4,-141.5 612,-141.5 612,4 -4,4"/>
<g id="clust2" class="cluster">
<title>cluster_associated</title>
</g>
<!-- State -->
<g id="node1" class="node">
<title>State</title>
<g id="a_node1"><a xlink:href="../classes/State.md" xlink:title="&lt;TABLE&gt;">
<polygon fill="lightgray" stroke="none" points="12.12,-25.88 12.12,-42.12 41.88,-42.12 41.88,-25.88 12.12,-25.88"/>
<text xml:space="preserve" text-anchor="start" x="13.12" y="-29.73" font-family="Arial" font-size="12.00">State</text>
<polygon fill="none" stroke="black" points="11.12,-24.88 11.12,-43.12 42.88,-43.12 42.88,-24.88 11.12,-24.88"/>
</a>
</g>
</g>
<!-- https://standards.iso.org/iso&#45;iec/5087/&#45;1/ed&#45;1/en/ontology/Activity/NonTerminalState -->
<g id="node2" class="node">
<title>https://standards.iso.org/iso&#45;iec/5087/&#45;1/ed&#45;1/en/ontology/Activity/NonTerminalState</title>
<g id="a_node2"><a xlink:href="../classes/https://standards.iso.org/iso-iec/5087/-1/ed-1/en/ontology/Activity/NonTerminalState.md" xlink:title="&lt;TABLE&gt;">
<polygon fill="lightgray" stroke="none" points="73.38,-25.88 73.38,-42.12 518.62,-42.12 518.62,-25.88 73.38,-25.88"/>
<text xml:space="preserve" text-anchor="start" x="74.38" y="-29.73" font-family="Arial" font-size="12.00">https:://standards.iso.org/iso&#45;iec/5087/&#45;1/ed&#45;1/en/ontology/Activity/NonTerminalState</text>
<polygon fill="none" stroke="black" points="72.38,-24.88 72.38,-43.12 519.62,-43.12 519.62,-24.88 72.38,-24.88"/>
</a>
</g>
</g>
<!-- Invis -->
<!-- https -->
<g id="node4" class="node">
<title>https</title>
<text xml:space="preserve" text-anchor="middle" x="27" y="-115.22" font-family="Arial" font-size="12.00">https</text>
</g>
<!-- https&#45;&gt;State -->
<g id="edge1" class="edge">
<title>https://standards.iso.org/iso&#45;iec/5087/&#45;1/ed&#45;1/en/ontology/Activity/NonTerminalState&#45;&gt;State</title>
<path fill="none" stroke="black" d="M25.74,-101.89C25.18,-92.53 24.7,-80.61 25,-70 25.06,-67.76 25.15,-65.45 25.25,-63.12"/>
<polygon fill="none" stroke="black" points="28.74,-63.41 25.77,-53.24 21.75,-63.04 28.74,-63.41"/>
</g>
<!-- https&#45;&gt;State -->
<g id="edge2" class="edge">
<title>https://standards.iso.org/iso&#45;iec/5087/&#45;1/ed&#45;1/en/ontology/Activity/NonTerminalState&#45;&gt;State</title>
<path fill="none" stroke="black" d="M27,-101.6C27,-90.62 27,-76.04 27,-63.32"/>
<polygon fill="black" stroke="black" points="30.5,-63.39 27,-53.39 23.5,-63.39 30.5,-63.39"/>
<text xml:space="preserve" text-anchor="middle" x="75.75" y="-73.05" font-family="Arial" font-size="11.00">hasSubstate «only» </text>
</g>
</g>
</svg>
