<?xml version="1.0" encoding="UTF-8" standalone="no"?>
<!DOCTYPE svg PUBLIC "-//W3C//DTD SVG 1.1//EN"
 "http://www.w3.org/Graphics/SVG/1.1/DTD/svg11.dtd">
<!-- Generated by graphviz version 13.1.0 (20250701.0955)
 -->
<!-- Pages: 1 -->
<svg width="1123pt" height="292pt"
 viewBox="0.00 0.00 1123.00 292.00" xmlns="http://www.w3.org/2000/svg" xmlns:xlink="http://www.w3.org/1999/xlink">
<g id="graph0" class="graph" transform="scale(1 1) rotate(0) translate(4 287.5)">
<polygon fill="white" stroke="none" points="-4,4 -4,-287.5 1119,-287.5 1119,4 -4,4"/>
<g id="clust2" class="cluster">
<title>cluster_associated</title>
</g>
<!-- ActivityOntologyThing -->
<g id="node1" class="node">
<title>ActivityOntologyThing</title>
<g id="a_node1"><a xlink:href="../classes/ActivityOntologyThing.md" xlink:title="&lt;TABLE&gt;">
<polygon fill="lightgray" stroke="none" points="1,-184.38 1,-200.62 120,-200.62 120,-184.38 1,-184.38"/>
<text xml:space="preserve" text-anchor="start" x="2" y="-188.22" font-family="Arial" font-size="12.00">ActivityOntologyThing</text>
<polygon fill="none" stroke="black" points="0,-183.38 0,-201.62 121,-201.62 121,-183.38 0,-183.38"/>
</a>
</g>
</g>
<!-- https://standards.iso.org/iso&#45;iec/5087/&#45;1/ed&#45;1/en/ontology/Activity/State -->
<g id="node2" class="node">
<title>https://standards.iso.org/iso&#45;iec/5087/&#45;1/ed&#45;1/en/ontology/Activity/State</title>
<g id="a_node2"><a xlink:href="../classes/https://standards.iso.org/iso-iec/5087/-1/ed-1/en/ontology/Activity/State.md" xlink:title="&lt;TABLE&gt;">
<polygon fill="lightgray" stroke="none" points="737,-184.38 737,-200.62 1114,-200.62 1114,-184.38 737,-184.38"/>
<text xml:space="preserve" text-anchor="start" x="738" y="-188.22" font-family="Arial" font-size="12.00">https:://standards.iso.org/iso&#45;iec/5087/&#45;1/ed&#45;1/en/ontology/Activity/State</text>
<polygon fill="none" stroke="black" points="736,-183.38 736,-201.62 1115,-201.62 1115,-183.38 736,-183.38"/>
</a>
</g>
</g>
<!-- Invis -->
<!-- Activity -->
<g id="node4" class="node">
<title>Activity</title>
<g id="a_node4"><a xlink:href="../classes/Activity.md" xlink:title="&lt;TABLE&gt;">
<polygon fill="lightgray" stroke="none" points="158.38,-98.88 158.38,-115.12 198.62,-115.12 198.62,-98.88 158.38,-98.88"/>
<text xml:space="preserve" text-anchor="start" x="159.38" y="-102.72" font-family="Arial" font-size="12.00">Activity</text>
<polygon fill="none" stroke="black" points="157.38,-97.88 157.38,-116.12 199.62,-116.12 199.62,-97.88 157.38,-97.88"/>
</a>
</g>
</g>
<!-- Invis&#45;&gt;Activity -->
<!-- StateStatus -->
<g id="node5" class="node">
<title>StateStatus</title>
<g id="a_node5"><a xlink:href="../classes/StateStatus.md" xlink:title="&lt;TABLE&gt;">
<polygon fill="lightgray" stroke="none" points="140.75,-25.88 140.75,-42.12 204.25,-42.12 204.25,-25.88 140.75,-25.88"/>
<text xml:space="preserve" text-anchor="start" x="141.75" y="-29.73" font-family="Arial" font-size="12.00">StateStatus</text>
<polygon fill="none" stroke="black" points="139.75,-24.88 139.75,-43.12 205.25,-43.12 205.25,-24.88 139.75,-24.88"/>
</a>
</g>
</g>
<!-- Activity&#45;&gt;StateStatus -->
<!-- https -->
<g id="node6" class="node">
<title>https</title>
<text xml:space="preserve" text-anchor="middle" x="350.5" y="-261.23" font-family="Arial" font-size="12.00">https</text>
</g>
<!-- https&#45;&gt;ActivityOntologyThing -->
<g id="edge1" class="edge">
<title>https://standards.iso.org/iso&#45;iec/5087/&#45;1/ed&#45;1/en/ontology/Activity/State&#45;&gt;ActivityOntologyThing</title>
<path fill="none" stroke="black" d="M323.75,-260.35C281.56,-253.5 197.21,-238.57 127.5,-218.5 123,-217.21 118.38,-215.75 113.76,-214.21"/>
<polygon fill="none" stroke="black" points="115.09,-210.97 104.49,-210.99 112.79,-217.58 115.09,-210.97"/>
</g>
<!-- https&#45;&gt;Invis -->
<!-- https&#45;&gt;Activity -->
<g id="edge5" class="edge">
<title>https://standards.iso.org/iso&#45;iec/5087/&#45;1/ed&#45;1/en/ontology/Activity/State&#45;&gt;Activity</title>
<path fill="none" stroke="black" d="M323.82,-258.06C300.52,-251.35 266.92,-238.91 243.75,-218.5 217.8,-195.64 199.33,-159.88 188.81,-135.26"/>
<polygon fill="black" stroke="black" points="192.14,-134.15 185.11,-126.22 185.66,-136.8 192.14,-134.15"/>
<text xml:space="preserve" text-anchor="middle" x="286.12" y="-188.8" font-family="Arial" font-size="11.00">causedBy «only» </text>
</g>
<!-- https&#45;&gt;Activity -->
<g id="edge6" class="edge">
<title>https://standards.iso.org/iso&#45;iec/5087/&#45;1/ed&#45;1/en/ontology/Activity/State&#45;&gt;Activity</title>
<path fill="none" stroke="black" d="M350.65,-247.61C349.94,-227.89 345.94,-195.35 328.5,-174.5 300.01,-140.44 250.6,-123.2 216.31,-114.93"/>
<polygon fill="black" stroke="black" points="217.31,-111.57 206.79,-112.79 215.78,-118.4 217.31,-111.57"/>
<text xml:space="preserve" text-anchor="middle" x="384.64" y="-188.8" font-family="Arial" font-size="11.00">effectOf «only» </text>
</g>
<!-- https&#45;&gt;Activity -->
<g id="edge7" class="edge">
<title>https://standards.iso.org/iso&#45;iec/5087/&#45;1/ed&#45;1/en/ontology/Activity/State&#45;&gt;Activity</title>
<path fill="none" stroke="black" d="M377.39,-256.01C394.78,-248.96 416.05,-237.04 426.5,-218.5 436.1,-201.46 438.33,-190.07 426.5,-174.5 401.18,-141.16 279.54,-120.95 216.52,-112.55"/>
<polygon fill="black" stroke="black" points="217.35,-109.12 206.98,-111.31 216.45,-116.06 217.35,-109.12"/>
<text xml:space="preserve" text-anchor="middle" x="472.06" y="-188.8" font-family="Arial" font-size="11.00">enables «only» </text>
</g>
<!-- https&#45;&gt;Activity -->
<g id="edge8" class="edge">
<title>https://standards.iso.org/iso&#45;iec/5087/&#45;1/ed&#45;1/en/ontology/Activity/State&#45;&gt;Activity</title>
<path fill="none" stroke="black" d="M377.37,-260.85C419.27,-254.55 497.09,-240.19 513.5,-218.5 525.3,-202.91 525.36,-190.05 513.5,-174.5 477.85,-127.77 296.51,-113.54 216.51,-109.49"/>
<polygon fill="black" stroke="black" points="217.14,-106.02 206.98,-109.04 216.8,-113.01 217.14,-106.02"/>
<text xml:space="preserve" text-anchor="middle" x="576" y="-188.8" font-family="Arial" font-size="11.00">preconditionOf «only» </text>
</g>
<!-- https&#45;&gt;StateStatus -->
<g id="edge9" class="edge">
<title>https://standards.iso.org/iso&#45;iec/5087/&#45;1/ed&#45;1/en/ontology/Activity/State&#45;&gt;StateStatus</title>
<path fill="none" stroke="black" d="M377.31,-265.2C459.57,-266.43 698.95,-262.68 633.5,-174.5 582.76,-106.14 321.1,-58.27 216.13,-41.55"/>
<polygon fill="black" stroke="black" points="216.93,-38.13 206.5,-40.03 215.84,-45.04 216.93,-38.13"/>
<text xml:space="preserve" text-anchor="middle" x="667.19" y="-146.05" font-family="Arial" font-size="11.00">hasStatus «exactly 1» </text>
</g>
</g>
</svg>
