<?xml version="1.0" encoding="UTF-8" standalone="no"?>
<!DOCTYPE svg PUBLIC "-//W3C//DTD SVG 1.1//EN"
 "http://www.w3.org/Graphics/SVG/1.1/DTD/svg11.dtd">
<!-- Generated by graphviz version 13.1.0 (20250701.0955)
 -->
<!-- Pages: 1 -->
<svg width="648pt" height="132pt"
 viewBox="0.00 0.00 648.00 132.00" xmlns="http://www.w3.org/2000/svg" xmlns:xlink="http://www.w3.org/1999/xlink">
<g id="graph0" class="graph" transform="scale(1 1) rotate(0) translate(4 128)">
<polygon fill="white" stroke="none" points="-4,4 -4,-128 643.5,-128 643.5,4 -4,4"/>
<g id="clust2" class="cluster">
<title>cluster_associated</title>
</g>
<!-- ActivityOntologyThing -->
<g id="node1" class="node">
<title>ActivityOntologyThing</title>
<g id="a_node1"><a xlink:href="../classes/ActivityOntologyThing.md" xlink:title="&lt;TABLE&gt;">
<polygon fill="lightgray" stroke="none" points="1,-25.88 1,-42.12 120,-42.12 120,-25.88 1,-25.88"/>
<text xml:space="preserve" text-anchor="start" x="2" y="-29.73" font-family="Arial" font-size="12.00">ActivityOntologyThing</text>
<polygon fill="none" stroke="black" points="0,-24.88 0,-43.12 121,-43.12 121,-24.88 0,-24.88"/>
</a>
</g>
</g>
<!-- https://standards.iso.org/iso&#45;iec/5087/&#45;1/ed&#45;1/en/ontology/Activity/StateStatus -->
<g id="node2" class="node">
<title>https://standards.iso.org/iso&#45;iec/5087/&#45;1/ed&#45;1/en/ontology/Activity/StateStatus</title>
<g id="a_node2"><a xlink:href="../classes/https://standards.iso.org/iso-iec/5087/-1/ed-1/en/ontology/Activity/StateStatus.md" xlink:title="&lt;TABLE&gt;">
<polygon fill="lightgray" stroke="none" points="140.12,-25.88 140.12,-42.12 550.88,-42.12 550.88,-25.88 140.12,-25.88"/>
<text xml:space="preserve" text-anchor="start" x="141.12" y="-29.73" font-family="Arial" font-size="12.00">https:://standards.iso.org/iso&#45;iec/5087/&#45;1/ed&#45;1/en/ontology/Activity/StateStatus</text>
<polygon fill="none" stroke="black" points="139.12,-24.88 139.12,-43.12 551.88,-43.12 551.88,-24.88 139.12,-24.88"/>
</a>
</g>
</g>
<!-- Invis -->
<!-- https -->
<g id="node4" class="node">
<title>https</title>
<text xml:space="preserve" text-anchor="middle" x="60.5" y="-101.72" font-family="Arial" font-size="12.00">https</text>
</g>
<!-- https&#45;&gt;ActivityOntologyThing -->
<g id="edge1" class="edge">
<title>https://standards.iso.org/iso&#45;iec/5087/&#45;1/ed&#45;1/en/ontology/Activity/StateStatus&#45;&gt;ActivityOntologyThing</title>
<path fill="none" stroke="black" d="M60.5,-88.05C60.5,-80.57 60.5,-71.58 60.5,-63.14"/>
<polygon fill="none" stroke="black" points="64,-63.3 60.5,-53.3 57,-63.3 64,-63.3"/>
</g>
</g>
</svg>
