<?xml version="1.0" encoding="UTF-8" standalone="no"?>
<!DOCTYPE svg PUBLIC "-//W3C//DTD SVG 1.1//EN"
 "http://www.w3.org/Graphics/SVG/1.1/DTD/svg11.dtd">
<!-- Generated by graphviz version 13.1.0 (20250701.0955)
 -->
<!-- Pages: 1 -->
<svg width="592pt" height="132pt"
 viewBox="0.00 0.00 592.00 132.00" xmlns="http://www.w3.org/2000/svg" xmlns:xlink="http://www.w3.org/1999/xlink">
<g id="graph0" class="graph" transform="scale(1 1) rotate(0) translate(4 128)">
<polygon fill="white" stroke="none" points="-4,4 -4,-128 588,-128 588,4 -4,4"/>
<g id="clust2" class="cluster">
<title>cluster_associated</title>
</g>
<!-- State -->
<g id="node1" class="node">
<title>State</title>
<g id="a_node1"><a xlink:href="../classes/State.md" xlink:title="&lt;TABLE&gt;">
<polygon fill="lightgray" stroke="none" points="12.12,-25.88 12.12,-42.12 41.88,-42.12 41.88,-25.88 12.12,-25.88"/>
<text xml:space="preserve" text-anchor="start" x="13.12" y="-29.73" font-family="Arial" font-size="12.00">State</text>
<polygon fill="none" stroke="black" points="11.12,-24.88 11.12,-43.12 42.88,-43.12 42.88,-24.88 11.12,-24.88"/>
</a>
</g>
</g>
<!-- https://standards.iso.org/iso&#45;iec/5087/&#45;1/ed&#45;1/en/ontology/Activity/TerminalState -->
<g id="node2" class="node">
<title>https://standards.iso.org/iso&#45;iec/5087/&#45;1/ed&#45;1/en/ontology/Activity/TerminalState</title>
<g id="a_node2"><a xlink:href="../classes/https://standards.iso.org/iso-iec/5087/-1/ed-1/en/ontology/Activity/TerminalState.md" xlink:title="&lt;TABLE&gt;">
<polygon fill="lightgray" stroke="none" points="72.62,-25.88 72.62,-42.12 495.38,-42.12 495.38,-25.88 72.62,-25.88"/>
<text xml:space="preserve" text-anchor="start" x="73.62" y="-29.73" font-family="Arial" font-size="12.00">https:://standards.iso.org/iso&#45;iec/5087/&#45;1/ed&#45;1/en/ontology/Activity/TerminalState</text>
<polygon fill="none" stroke="black" points="71.62,-24.88 71.62,-43.12 496.38,-43.12 496.38,-24.88 71.62,-24.88"/>
</a>
</g>
</g>
<!-- Invis -->
<!-- https -->
<g id="node4" class="node">
<title>https</title>
<text xml:space="preserve" text-anchor="middle" x="27" y="-101.72" font-family="Arial" font-size="12.00">https</text>
</g>
<!-- https&#45;&gt;State -->
<g id="edge1" class="edge">
<title>https://standards.iso.org/iso&#45;iec/5087/&#45;1/ed&#45;1/en/ontology/Activity/TerminalState&#45;&gt;State</title>
<path fill="none" stroke="black" d="M27,-88.05C27,-80.57 27,-71.58 27,-63.14"/>
<polygon fill="none" stroke="black" points="30.5,-63.3 27,-53.3 23.5,-63.3 30.5,-63.3"/>
</g>
</g>
</svg>
